<svg width="16" height="16" viewBox="0 0 16 16" fill="none" xmlns="http://www.w3.org/2000/svg">
<g clip-path="url(#clip0_317_807)">
<path d="M5.38955 14V4.315H8.80855C9.44988 4.315 10.0132 4.43633 10.4985 4.679C10.9839 4.92167 11.3609 5.26833 11.6295 5.719C11.9069 6.16967 12.0455 6.69833 12.0455 7.305C12.0455 7.91167 11.9069 8.44033 11.6295 8.891C11.3609 9.333 10.9839 9.67967 10.4985 9.931C10.0219 10.1737 9.45855 10.295 8.80855 10.295H6.66355V14H5.38955ZM6.66355 9.125H8.84755C9.23755 9.125 9.57555 9.05133 9.86155 8.904C10.1475 8.75667 10.3685 8.54433 10.5245 8.267C10.6805 7.98967 10.7585 7.669 10.7585 7.305C10.7585 6.93233 10.6805 6.61167 10.5245 6.343C10.3685 6.06567 10.1475 5.85333 9.86155 5.706C9.57555 5.55867 9.23755 5.485 8.84755 5.485H6.66355V9.125Z" fill="black"/>
<circle cx="10" cy="13" r="1" fill="#22C55E"/>
</g>
<defs>
<clipPath id="clip0_317_807">
<rect width="16" height="16" fill="white"/>
</clipPath>
</defs>
</svg>
