<svg width="289" height="289" viewBox="0 0 289 289" fill="none" xmlns="http://www.w3.org/2000/svg">
<path d="M144.5 247.13C206.394 247.13 256.568 244.2 256.568 240.587C256.568 236.973 206.394 234.044 144.5 234.044C82.6064 234.044 32.4316 236.973 32.4316 240.587C32.4316 244.2 82.6064 247.13 144.5 247.13Z" fill="#F5F5F5"/>
<path d="M218.224 63.0886H151.702C149.421 63.1261 147.235 64.0127 145.572 65.5753C143.909 67.1378 142.888 69.2641 142.709 71.539L132.362 230.813C132.278 231.897 132.421 232.987 132.781 234.014C133.14 235.04 133.71 235.981 134.453 236.775C135.197 237.569 136.097 238.2 137.097 238.628C138.098 239.055 139.176 239.269 140.264 239.257H206.809C209.09 239.221 211.276 238.336 212.939 236.774C214.602 235.213 215.623 233.087 215.803 230.813L223.224 116.334C223.539 116.224 223.816 116.025 224.021 115.762C224.226 115.498 224.351 115.181 224.38 114.849L225.709 94.3642C225.733 94.046 225.652 93.7288 225.478 93.4608C225.305 93.1928 225.05 92.9884 224.75 92.8787L226.131 71.539C226.216 70.4537 226.073 69.3628 225.713 68.3356C225.353 67.3084 224.782 66.3674 224.039 65.5726C223.295 64.7778 222.394 64.1464 221.393 63.7188C220.392 63.2911 219.313 63.0765 218.224 63.0886Z" fill="#016BD9"/>
<path d="M137.322 104.329H138.628C139.032 104.322 139.419 104.164 139.714 103.888C140.009 103.611 140.19 103.235 140.223 102.832L140.801 94.2774C140.816 94.0849 140.79 93.8916 140.726 93.7096C140.661 93.5276 140.56 93.3609 140.428 93.2201C140.296 93.0794 140.136 92.9676 139.958 92.8919C139.781 92.8162 139.59 92.7782 139.397 92.7804H138.096C137.692 92.7863 137.304 92.9431 137.009 93.22C136.714 93.4969 136.532 93.874 136.501 94.2774L135.923 102.832C135.908 103.024 135.934 103.217 135.998 103.398C136.062 103.58 136.163 103.746 136.294 103.887C136.426 104.028 136.585 104.139 136.762 104.215C136.938 104.292 137.129 104.33 137.322 104.329Z" fill="#016BD9"/>
<path d="M136.333 119.6H137.634C138.039 119.593 138.428 119.435 138.724 119.157C139.02 118.879 139.202 118.501 139.235 118.097L139.813 109.548C139.827 109.356 139.801 109.163 139.737 108.981C139.673 108.799 139.572 108.632 139.44 108.491C139.307 108.35 139.148 108.239 138.97 108.163C138.793 108.087 138.601 108.049 138.408 108.051H137.108C136.703 108.057 136.314 108.214 136.018 108.491C135.722 108.767 135.54 109.144 135.507 109.548L134.929 118.097C134.912 118.29 134.937 118.484 135 118.668C135.064 118.851 135.165 119.018 135.298 119.16C135.43 119.302 135.59 119.414 135.769 119.49C135.947 119.565 136.139 119.603 136.333 119.6Z" fill="#016BD9"/>
<path d="M203.271 239.257H136.749C135.661 239.269 134.583 239.055 133.583 238.627C132.582 238.2 131.682 237.569 130.939 236.775C130.196 235.981 129.626 235.04 129.266 234.014C128.906 232.987 128.763 231.897 128.848 230.813L139.171 71.5389C139.352 69.2636 140.374 67.1372 142.038 65.5748C143.702 64.0123 145.888 63.1259 148.17 63.0886H214.687C215.775 63.0773 216.853 63.2925 217.853 63.7205C218.854 64.1485 219.754 64.7799 220.497 65.5747C221.24 66.3694 221.81 67.3101 222.17 68.3369C222.53 69.3637 222.672 70.4541 222.588 71.5389L212.265 230.813C212.085 233.087 211.064 235.213 209.401 236.774C207.738 238.336 205.552 239.221 203.271 239.257Z" fill="#263238"/>
<path opacity="0.2" d="M174.532 232.485C176.862 230.229 177.038 226.63 174.924 224.447C172.81 222.263 169.208 222.322 166.878 224.578C164.547 226.833 164.372 230.432 166.485 232.616C168.599 234.799 172.202 234.74 174.532 232.485Z" fill="white"/>
<path d="M209.282 218.582H133.663C133.405 218.582 133.15 218.529 132.914 218.426C132.678 218.324 132.465 218.174 132.289 217.986C132.113 217.798 131.978 217.576 131.891 217.334C131.804 217.091 131.768 216.833 131.784 216.576L140.633 79.9835C140.672 79.5117 140.887 79.0718 141.235 78.7507C141.583 78.4297 142.038 78.2508 142.512 78.2495H218.137C218.395 78.2498 218.65 78.3028 218.886 78.4053C219.122 78.5079 219.335 78.6578 219.511 78.8457C219.687 79.0337 219.822 79.2557 219.909 79.4981C219.996 79.7405 220.032 79.9982 220.016 80.2552L211.161 216.819C211.13 217.297 210.919 217.744 210.57 218.072C210.221 218.399 209.761 218.582 209.282 218.582Z" fill="white"/>
<path opacity="0.2" d="M188.184 164.745C196.642 156.556 197.279 143.493 189.606 135.566C181.932 127.639 168.855 127.852 160.396 136.04C151.937 144.229 151.301 157.292 158.974 165.219C166.647 173.146 179.725 172.933 188.184 164.745Z" fill="#016BD9"/>
<path opacity="0.2" d="M172.244 182.22C154.69 182.22 141.332 167.938 142.471 150.384C143.61 132.83 158.811 118.548 176.371 118.548C193.93 118.548 207.282 132.83 206.144 150.384C205.005 167.938 189.78 182.22 172.244 182.22ZM176.29 119.126C159.054 119.126 144.124 133.148 143.009 150.384C141.893 167.62 155.002 181.642 172.238 181.642C189.474 181.642 204.404 167.62 205.525 150.384C206.646 133.148 193.549 119.126 176.29 119.126Z" fill="#016BD9"/>
<path d="M169.354 160.389L167.62 157.043C163.863 149.754 155.21 143.24 152.188 141.344L155.043 137.073C158.621 139.315 165.771 144.87 170.256 151.471C178.55 141.645 190.272 131.524 205.965 120.605L208.641 124.651C191.879 136.316 179.816 146.98 171.793 157.256L169.354 160.389Z" fill="#016BD9"/>
<path opacity="0.2" d="M168.534 72.1809C169.477 71.2684 169.546 69.8109 168.689 68.9256C167.832 68.0403 166.373 68.0624 165.43 68.9749C164.488 69.8874 164.418 71.3449 165.275 72.2302C166.132 73.1155 167.591 73.0935 168.534 72.1809Z" fill="white"/>
<path opacity="0.2" d="M175.082 68.2733H194.208C194.506 68.2699 194.8 68.3286 195.074 68.4457C195.347 68.5629 195.593 68.7358 195.795 68.9535C195.997 69.1712 196.152 69.4289 196.249 69.7099C196.346 69.9909 196.383 70.2891 196.358 70.5853C196.311 71.2066 196.034 71.7879 195.58 72.2155C195.127 72.6431 194.531 72.8862 193.908 72.8973H174.787C174.49 72.8999 174.196 72.8405 173.923 72.7232C173.65 72.6058 173.404 72.4329 173.201 72.2155C172.998 71.9981 172.843 71.7409 172.745 71.4603C172.647 71.1796 172.608 70.8817 172.632 70.5853C172.679 69.964 172.956 69.3828 173.41 68.9552C173.863 68.5276 174.459 68.2845 175.082 68.2733Z" fill="white"/>
<path d="M103.89 110.976C102.913 111.976 101.867 113.08 100.901 114.178C99.936 115.276 98.9708 116.403 98.0633 117.559C97.1559 118.715 96.3293 119.871 95.4739 121.091L94.8959 121.998L94.3179 122.917C94.1271 123.224 93.9537 123.536 93.7861 123.854L93.3237 124.703C93.1352 125.189 93.0278 125.703 93.0058 126.224C92.9595 126.893 92.9595 127.565 93.0058 128.235C93.1191 129.68 93.3121 131.117 93.5838 132.541C93.8381 133.998 94.1618 135.46 94.5028 136.917C94.8439 138.373 95.2196 139.847 95.601 141.28L93.4624 142.084C92.1483 139.257 91.047 136.336 90.1678 133.345C89.7214 131.803 89.3796 130.233 89.1448 128.645C89.0279 127.799 88.968 126.945 88.9656 126.091C88.952 125.084 89.1224 124.083 89.4685 123.137C89.6014 122.813 89.6708 122.686 89.7632 122.49L90.0291 121.941C90.2025 121.576 90.3817 121.212 90.6071 120.86L91.1851 119.796L91.7978 118.762C92.6142 117.399 93.5037 116.081 94.4624 114.814C95.4103 113.548 96.3929 112.317 97.4275 111.126C98.4621 109.936 99.5083 108.814 100.711 107.658L103.89 110.976Z" fill="#B55B52"/>
<path d="M104.138 104.04C101.005 104.179 98.0283 109.381 98.0283 109.381L102.167 117.825C102.167 117.825 107.773 113.155 107.843 108.577C107.889 105.577 107.219 103.895 104.138 104.04Z" fill="#016BD9"/>
<path opacity="0.7" d="M104.138 104.04C101.005 104.179 98.0283 109.381 98.0283 109.381L102.167 117.825C102.167 117.825 107.773 113.155 107.843 108.577C107.889 105.577 107.219 103.895 104.138 104.04Z" fill="white"/>
<path opacity="0.2" d="M104.884 110.109C103.971 111.49 103.531 115.074 103.393 116.669C104.772 115.328 105.941 113.787 106.861 112.097C106.242 110.554 105.485 109.201 104.884 110.109Z" fill="black"/>
<path d="M94.9823 140.402L98.7914 141.558L96.2539 144.124C96.2539 144.124 93.5084 143.275 93.127 141.408L94.9823 140.402Z" fill="#B55B52"/>
<path d="M101.098 144.465L100.456 146.922L96.2539 144.101L98.7913 141.535L101.098 144.465Z" fill="#B55B52"/>
<path d="M126.159 94.0116C126.038 94.3526 126.125 94.6994 126.35 94.7803C126.576 94.8612 126.853 94.6589 126.969 94.3179C127.084 93.9769 127.003 93.6243 126.778 93.5434C126.552 93.4625 126.281 93.6648 126.159 94.0116Z" fill="#263238"/>
<path d="M126.675 93.5261L127.582 93.6013C127.582 93.6013 126.935 94.081 126.675 93.5261Z" fill="#263238"/>
<path d="M126.333 94.4509C126.367 95.3501 126.523 96.2406 126.796 97.0982C126.575 97.1559 126.345 97.1651 126.12 97.1252C125.896 97.0853 125.682 96.9972 125.495 96.867L126.333 94.4509Z" fill="#A02724"/>
<path d="M127.282 92.6763C127.24 92.6706 127.202 92.6527 127.171 92.6249C127.14 92.5971 127.118 92.5606 127.108 92.5203C127.045 92.259 126.923 92.0155 126.752 91.8083C126.581 91.601 126.364 91.4353 126.12 91.3238C126.067 91.3043 126.024 91.2648 126.001 91.214C125.977 91.1632 125.974 91.1051 125.993 91.0522C126.002 91.0256 126.016 91.0012 126.035 90.9804C126.053 90.9595 126.076 90.9426 126.101 90.9308C126.127 90.9189 126.154 90.9123 126.182 90.9113C126.21 90.9103 126.238 90.9149 126.264 90.925C126.579 91.0617 126.857 91.2705 127.076 91.5346C127.295 91.7987 127.448 92.1106 127.524 92.4451C127.531 92.4725 127.533 92.5009 127.529 92.5288C127.525 92.5567 127.515 92.5835 127.5 92.6076C127.486 92.6318 127.467 92.6529 127.444 92.6696C127.421 92.6864 127.396 92.6985 127.368 92.7052L127.282 92.6763Z" fill="#263238"/>
<path d="M114.288 95.4624C114.369 98.1963 114.091 103.115 111.976 104.508C111.976 104.508 112.259 107.317 117.178 108.271C122.582 109.317 120.201 106.103 120.201 106.103C117.368 104.832 117.802 102.67 118.651 100.728L114.288 95.4624Z" fill="#B55B52"/>
<path d="M130.351 114.172C130.836 115.496 131.391 116.929 131.981 118.288C132.57 119.646 133.137 121.022 133.825 122.334C134.512 123.646 135.183 124.964 135.911 126.241C136.287 126.871 136.663 127.501 137.067 128.102C137.264 128.414 137.466 128.715 137.68 128.998L137.992 129.437L138.148 129.663L138.229 129.773L138.281 129.83C138.657 130.258 139.088 130.633 139.564 130.946C140.137 131.337 140.731 131.696 141.344 132.021C142.61 132.703 143.969 133.322 145.35 133.905C146.731 134.489 148.142 135.061 149.569 135.564C150.997 136.067 152.459 136.599 153.864 137.09L153.326 139.315C150.229 138.798 147.169 138.077 144.165 137.159C142.627 136.69 141.118 136.133 139.645 135.489C138.873 135.146 138.12 134.76 137.391 134.333C136.545 133.851 135.779 133.24 135.119 132.524L134.981 132.368L134.882 132.246L134.692 132.009L134.31 131.524C134.05 131.206 133.802 130.882 133.57 130.553C133.079 129.9 132.628 129.229 132.183 128.553C131.306 127.212 130.498 125.826 129.761 124.403C129.027 122.987 128.334 121.559 127.698 120.103C127.062 118.646 126.49 117.213 125.964 115.617L130.351 114.172Z" fill="#B55B52"/>
<path d="M153.1 137.078L156.511 135.76L156.343 139.697C156.343 139.697 153.58 140.431 152.297 139.038L153.1 137.078Z" fill="#B55B52"/>
<path d="M159.083 137.113L160.25 139.627L156.343 139.697L156.51 135.76L159.083 137.113Z" fill="#B55B52"/>
<path d="M102.525 235.76L107.04 236.096L108.381 225.732L103.866 225.397L102.525 235.76Z" fill="#B55B52"/>
<path d="M66.7705 212.317L69.7183 215.819L78.4692 210.195L75.5214 206.693L66.7705 212.317Z" fill="#B55B52"/>
<path d="M71.0939 215.369L68.7183 210.802C68.6805 210.723 68.6148 210.66 68.5338 210.626C68.4529 210.592 68.3622 210.589 68.279 210.617L64.5047 211.924C64.4099 211.962 64.3244 212.019 64.2536 212.093C64.1828 212.167 64.1284 212.254 64.094 212.35C64.0596 212.447 64.046 212.549 64.054 212.651C64.062 212.752 64.0915 212.851 64.1405 212.941C64.996 214.519 65.4873 215.253 66.5277 217.247C67.175 218.478 67.99 220.351 68.8743 222.056C69.7587 223.761 71.4464 223.004 71.2268 222.212C70.2326 218.68 70.8916 217.704 71.2268 216.172C71.2744 215.897 71.2276 215.614 71.0939 215.369Z" fill="#263238"/>
<path d="M107.323 235.454H102.248C102.161 235.453 102.076 235.483 102.009 235.539C101.942 235.596 101.898 235.674 101.884 235.76L101.202 239.772C101.188 239.872 101.196 239.973 101.224 240.07C101.253 240.167 101.302 240.257 101.369 240.333C101.435 240.409 101.517 240.47 101.609 240.512C101.701 240.554 101.801 240.575 101.902 240.575C103.676 240.546 104.526 240.442 106.757 240.442C108.132 240.442 110.965 240.587 112.86 240.587C114.756 240.587 114.907 238.714 114.12 238.54C110.6 237.783 109.236 236.731 108.069 235.731C107.863 235.55 107.597 235.452 107.323 235.454Z" fill="#263238"/>
<path opacity="0.2" d="M108.381 225.732L107.636 231.495L103.139 231.044L103.867 225.403L108.381 225.732Z" fill="black"/>
<path opacity="0.2" d="M75.521 206.693L78.4688 210.195L74.8447 212.525L71.7871 209.091L75.521 206.693Z" fill="black"/>
<path d="M102.884 131.524L120.987 135.032C129.541 109.849 127.495 109.022 127.495 109.022C126.165 108.304 124.793 107.667 123.385 107.115L123.137 107.022C121.981 106.6 121.738 106.537 120.189 106.086C117.519 105.456 115.039 104.93 111.97 104.496L111.392 104.415C110.814 104.346 110.282 104.288 109.75 104.236C109.392 104.196 109.034 104.173 108.693 104.15L107.537 104.086C105.56 103.988 104.144 104.017 104.144 104.017C105.138 119.744 104.381 124.27 102.884 131.524Z" fill="#016BD9"/>
<path opacity="0.7" d="M102.884 131.524L120.987 135.032C129.541 109.849 127.495 109.022 127.495 109.022C126.165 108.304 124.793 107.667 123.385 107.115L123.137 107.022C121.981 106.6 121.738 106.537 120.189 106.086C117.519 105.456 115.039 104.93 111.97 104.496L111.392 104.415C110.814 104.346 110.282 104.288 109.75 104.236C109.392 104.196 109.034 104.173 108.693 104.15L107.537 104.086C105.56 103.988 104.144 104.017 104.144 104.017C105.138 119.744 104.381 124.27 102.884 131.524Z" fill="white"/>
<path opacity="0.2" d="M124.895 114.901L123.259 114.635C123.259 116.791 124.08 120.49 124.877 122.842C125.553 120.53 126.079 118.629 126.478 117.028L124.895 114.901Z" fill="black"/>
<path d="M126.865 108.716C129.541 109.571 131.489 114.866 132.218 117.149L127.016 123.259C127.016 123.259 121.686 115.6 122.536 113.224C123.368 110.751 125.571 108.294 126.865 108.716Z" fill="#016BD9"/>
<path opacity="0.7" d="M126.865 108.716C129.541 109.571 131.489 114.866 132.218 117.149L127.016 123.259C127.016 123.259 121.686 115.6 122.536 113.224C123.368 110.751 125.571 108.294 126.865 108.716Z" fill="white"/>
<path d="M128.599 89.168C128.061 90.746 125.709 91.376 123.368 90.5841C121.027 89.7923 119.547 87.856 120.085 86.278C120.622 84.7001 122.975 84.0701 125.287 84.8677C127.599 85.6654 129.131 87.5901 128.599 89.168Z" fill="#263238"/>
<path d="M115.022 88.7345C113.819 93.0348 113.218 94.8266 114.594 97.7859C116.663 102.242 122.2 102.942 124.663 99.1211C126.876 95.6878 128.472 89.2315 124.934 86.0005C124.188 85.2791 123.266 84.7647 122.26 84.5083C121.254 84.2518 120.198 84.2621 119.198 84.5381C118.197 84.8142 117.285 85.3464 116.553 86.0823C115.82 86.8182 115.293 87.7323 115.022 88.7345Z" fill="#B55B52"/>
<path d="M121.739 83.7116C120.005 84.7058 116.323 78.4807 111.751 83.7116C108.479 87.4629 110.566 92.9596 110.566 92.9596C110.566 92.9596 107.959 88.3761 105.878 90.613C103.162 93.503 105.971 103.843 114.93 103.132C123.889 102.422 123.022 95.1503 123.022 95.1503C123.022 95.1503 127.218 90.8846 127.01 87.0583C126.854 84.1914 124.629 82.0759 121.739 83.7116Z" fill="#263238"/>
<path d="M122.825 92.4278C122.601 93.228 122.63 94.0776 122.906 94.8612C123.276 95.9651 124.125 95.9709 124.576 95.208C125.027 94.445 125.276 93.1214 124.634 92.2313C123.993 91.3411 123.114 91.5434 122.825 92.4278Z" fill="#B55B52"/>
<path d="M116.178 134.096C116.178 134.096 114.248 140.789 111.768 149.621C110.121 155.505 108.225 162.337 106.497 168.77C105.508 172.452 104.578 176.001 103.774 179.174C99.2311 197.121 76.5735 212.548 76.5735 212.548L72.1865 207.722C72.1865 207.722 87.411 194.902 91.8385 178.157C100.78 144.165 95.7516 138.431 102.878 131.524L116.178 134.096Z" fill="#263238"/>
<path opacity="0.2" d="M114.224 140.095C113.553 142.691 112.71 145.968 111.779 149.632C110.132 155.516 108.236 162.348 106.508 168.782C105.768 160.574 105.352 145.482 111.392 140.789C112.582 139.876 113.525 139.685 114.224 140.095Z" fill="black"/>
<path d="M76.9492 213.242L71.4697 207.213L73.1286 205.548L79.8507 211.883L76.9492 213.242Z" fill="#016BD9"/>
<path opacity="0.7" d="M76.9492 213.242L71.4697 207.213L73.1286 205.548L79.8507 211.883L76.9492 213.242Z" fill="white"/>
<path d="M71.9203 217.819C71.8651 217.818 71.8105 217.808 71.7584 217.79C71.2209 217.594 70.8799 216.565 70.7238 215.97C70.7187 215.949 70.7199 215.928 70.7271 215.909C70.7343 215.889 70.7473 215.872 70.7643 215.86C70.781 215.848 70.8013 215.841 70.8221 215.841C70.8428 215.841 70.8631 215.848 70.8799 215.86C71.0417 215.952 72.4636 216.785 72.4925 217.368C72.4973 217.432 72.4847 217.496 72.4563 217.553C72.4278 217.61 72.3843 217.658 72.3306 217.692C72.2125 217.78 72.0676 217.825 71.9203 217.819ZM71.0012 216.172C71.2382 216.952 71.5388 217.478 71.8336 217.582C71.8966 217.602 71.9635 217.605 72.0281 217.592C72.0928 217.579 72.1531 217.55 72.2035 217.507C72.2786 217.455 72.2844 217.403 72.2786 217.368C72.2497 217.068 71.5619 216.525 71.0012 216.172Z" fill="#016BD9"/>
<path d="M120.698 135.032C120.698 135.032 121.854 170.764 119.299 184.226C116.675 198.254 108.664 230.044 108.664 230.044L102.155 229.206C102.155 229.206 106.271 197.034 108.022 183.128C109.924 167.961 107.444 132.443 107.444 132.443L120.698 135.032Z" fill="#263238"/>
<path d="M110.063 230.443L100.786 229.246L100.896 227.038L110.994 227.478L110.063 230.443Z" fill="#016BD9"/>
<path opacity="0.7" d="M110.063 230.443L100.786 229.246L100.896 227.038L110.994 227.478L110.063 230.443Z" fill="white"/>
<path d="M72.1397 216.42C71.6595 216.397 71.191 216.265 70.7698 216.033C70.754 216.023 70.741 216.01 70.7319 215.994C70.7228 215.977 70.7179 215.959 70.7178 215.941C70.7203 215.922 70.7268 215.904 70.7368 215.888C70.7467 215.872 70.7599 215.859 70.7756 215.848C70.8276 215.848 71.9316 215.241 72.5674 215.478C72.6471 215.507 72.7194 215.553 72.7794 215.613C72.8393 215.673 72.8853 215.745 72.9142 215.825C72.9522 215.902 72.9631 215.989 72.9453 216.073C72.9275 216.157 72.8819 216.233 72.8159 216.287C72.6106 216.403 72.3735 216.45 72.1397 216.42ZM71.0588 215.952C71.5617 216.183 72.4402 216.311 72.683 216.12C72.7234 216.085 72.7639 216.033 72.683 215.9C72.666 215.849 72.6372 215.803 72.5991 215.764C72.561 215.726 72.5145 215.698 72.4633 215.681C71.9784 215.626 71.4884 215.721 71.0588 215.952Z" fill="#016BD9"/>
<path d="M108.999 236.24C108.523 236.23 108.049 236.176 107.583 236.078C107.561 236.076 107.54 236.066 107.525 236.05C107.509 236.034 107.499 236.014 107.496 235.991C107.493 235.969 107.497 235.947 107.507 235.927C107.518 235.907 107.534 235.891 107.554 235.882C107.762 235.772 109.589 234.853 110.132 235.159C110.184 235.188 110.227 235.229 110.258 235.28C110.288 235.331 110.305 235.389 110.305 235.448C110.317 235.544 110.304 235.642 110.267 235.732C110.231 235.822 110.172 235.901 110.097 235.963C109.773 236.175 109.386 236.273 108.999 236.24ZM107.941 235.928C108.936 236.095 109.675 236.049 109.959 235.806C110.007 235.764 110.045 235.71 110.068 235.649C110.091 235.589 110.099 235.524 110.092 235.46C110.093 235.436 110.088 235.413 110.077 235.392C110.066 235.372 110.049 235.355 110.028 235.344C109.733 235.182 108.693 235.569 107.941 235.928Z" fill="#016BD9"/>
<path d="M107.606 236.084C107.585 236.09 107.563 236.09 107.543 236.084C107.527 236.073 107.515 236.058 107.507 236.041C107.498 236.024 107.495 236.005 107.496 235.986C107.496 235.905 107.722 233.951 108.814 234.067C109.103 234.096 109.19 234.24 109.207 234.361C109.288 234.87 108.196 235.853 107.647 236.095L107.606 236.084ZM108.728 234.252C108.08 234.252 107.82 235.321 107.739 235.783C108.317 235.448 109.045 234.679 108.999 234.373C108.999 234.373 108.999 234.275 108.791 234.257L108.728 234.252Z" fill="#016BD9"/>
<path d="M102.769 130.42L101.688 131.871C101.607 131.986 101.734 132.142 101.942 132.183L120.929 135.859C121.091 135.859 121.241 135.859 121.265 135.737L121.698 134.154C121.698 134.05 121.6 133.922 121.421 133.888L103.086 130.339C103.031 130.324 102.973 130.324 102.917 130.338C102.861 130.352 102.81 130.38 102.769 130.42Z" fill="#016BD9"/>
<path d="M104.895 132.94L104.404 132.842C104.306 132.842 104.242 132.761 104.26 132.703L104.838 130.651C104.838 130.593 104.953 130.558 105.046 130.576L105.537 130.674C105.635 130.674 105.705 130.755 105.687 130.813L105.109 132.865C105.086 132.94 104.994 132.94 104.895 132.94Z" fill="#263238"/>
<path d="M117.293 135.362L116.802 135.269C116.703 135.269 116.64 135.183 116.657 135.125L117.235 133.079C117.235 133.015 117.345 132.98 117.443 133.004L117.935 133.096C118.027 133.096 118.096 133.183 118.079 133.241L117.501 135.287C117.484 135.35 117.391 135.385 117.293 135.362Z" fill="#263238"/>
</svg>
