<svg width="156" height="156" viewBox="0 0 156 156" fill="none" xmlns="http://www.w3.org/2000/svg">
<path d="M76.4961 132.197C109.906 132.197 136.99 130.616 136.99 128.666C136.99 126.715 109.906 125.134 76.4961 125.134C43.0864 125.134 16.0024 126.715 16.0024 128.666C16.0024 130.616 43.0864 132.197 76.4961 132.197Z" fill="#F5F5F5"/>
<path d="M103.019 119.621H70.356C69.7275 119.627 69.1045 119.504 68.5259 119.259C67.9472 119.013 67.4255 118.651 66.9932 118.195C66.561 117.739 66.2275 117.198 66.0138 116.607C65.8 116.016 65.7105 115.387 65.7509 114.76L69.9941 33.7836C70.0752 32.4769 70.6479 31.2492 71.5971 30.3475C72.5464 29.4457 73.8017 28.9367 75.1109 28.9226H107.771C108.4 28.9158 109.023 29.0388 109.602 29.2839C110.181 29.5291 110.703 29.8912 111.136 30.3475C111.569 30.8038 111.902 31.3446 112.116 31.9358C112.33 32.5271 112.42 33.1561 112.379 33.7836L108.136 114.76C108.054 116.067 107.481 117.294 106.532 118.195C105.583 119.097 104.328 119.606 103.019 119.621Z" fill="#016BD9"/>
<path d="M107.603 32.1828H74.9394C74.1095 32.1929 73.3141 32.5161 72.7125 33.0877C72.1108 33.6593 71.7472 34.4371 71.6946 35.2653L67.6074 113.265C67.5816 113.663 67.6382 114.062 67.7737 114.437C67.9092 114.812 68.1206 115.155 68.3948 115.444C68.6689 115.733 68.9999 115.963 69.3669 116.119C69.7339 116.274 70.1291 116.352 70.5277 116.348H103.191C104.021 116.338 104.816 116.015 105.418 115.443C106.02 114.871 106.383 114.094 106.436 113.265L110.523 35.2653C110.549 34.8676 110.492 34.4687 110.357 34.0938C110.221 33.719 110.01 33.3761 109.736 33.0867C109.461 32.7973 109.13 32.5677 108.763 32.4121C108.396 32.2566 108.001 32.1785 107.603 32.1828Z" fill="#016BD9"/>
<path opacity="0.8" d="M107.603 32.1828H74.9394C74.1095 32.1929 73.3141 32.5161 72.7125 33.0877C72.1108 33.6593 71.7472 34.4371 71.6946 35.2653L67.6074 113.265C67.5816 113.663 67.6382 114.062 67.7737 114.437C67.9092 114.812 68.1206 115.155 68.3948 115.444C68.6689 115.733 68.9999 115.963 69.3669 116.119C69.7339 116.274 70.1291 116.352 70.5277 116.348H103.191C104.021 116.338 104.816 116.015 105.418 115.443C106.02 114.871 106.383 114.094 106.436 113.265L110.523 35.2653C110.549 34.8676 110.492 34.4687 110.357 34.0938C110.221 33.719 110.01 33.3761 109.736 33.0867C109.461 32.7973 109.13 32.5677 108.763 32.4121C108.396 32.2566 108.001 32.1785 107.603 32.1828Z" fill="#F4F7FE"/>
<path d="M110.448 28.9226H107.78C108.409 28.9158 109.032 29.0388 109.611 29.2839C110.19 29.5291 110.713 29.8912 111.145 30.3475C111.578 30.8038 111.911 31.3446 112.125 31.9358C112.339 32.5271 112.429 33.1561 112.389 33.7836L108.145 114.76C108.064 116.067 107.492 117.294 106.542 118.196C105.593 119.098 104.338 119.607 103.029 119.621H105.696C107.005 119.607 108.261 119.098 109.21 118.196C110.159 117.294 110.732 116.067 110.813 114.76L115.056 33.7836C115.097 33.1561 115.007 32.5271 114.793 31.9358C114.579 31.3446 114.245 30.8038 113.813 30.3475C113.38 29.8912 112.858 29.5291 112.279 29.2839C111.7 29.0388 111.077 28.9158 110.448 28.9226Z" fill="#016BD9"/>
<path opacity="0.4" d="M110.448 28.9226H107.78C108.409 28.9158 109.032 29.0388 109.611 29.2839C110.19 29.5291 110.713 29.8912 111.145 30.3475C111.578 30.8038 111.911 31.3446 112.125 31.9358C112.339 32.5271 112.429 33.1561 112.389 33.7836L108.145 114.76C108.064 116.067 107.492 117.294 106.542 118.196C105.593 119.098 104.338 119.607 103.029 119.621H105.696C107.005 119.607 108.261 119.098 109.21 118.196C110.159 117.294 110.732 116.067 110.813 114.76L115.056 33.7836C115.097 33.1561 115.007 32.5271 114.793 31.9358C114.579 31.3446 114.245 30.8038 113.813 30.3475C113.38 29.8912 112.858 29.5291 112.279 29.2839C111.7 29.0388 111.077 28.9158 110.448 28.9226Z" fill="#F4F7FE"/>
<path opacity="0.4" d="M74.9363 32.1831L79.3729 116.376H90.9169L86.4803 32.1987H74.9363V32.1831Z" fill="#F4F7FE"/>
<path opacity="0.4" d="M93.0072 116.361H95.6062L91.1695 32.1831H88.5706L93.0072 116.361Z" fill="#F4F7FE"/>
<path d="M76.5835 27.503H77.7286C77.7658 27.503 77.8015 27.4882 77.8278 27.4618C77.8542 27.4355 77.869 27.3998 77.869 27.3626C77.869 27.3253 77.8542 27.2896 77.8278 27.2633C77.8015 27.237 77.7658 27.2222 77.7286 27.2222H76.5835C76.5463 27.2222 76.5106 27.237 76.4842 27.2633C76.4579 27.2896 76.4431 27.3253 76.4431 27.3626C76.4431 27.3998 76.4579 27.4355 76.4842 27.4618C76.5106 27.4882 76.5463 27.503 76.5835 27.503Z" fill="#016BD9"/>
<path d="M68.2594 36.7445C68.3312 35.4092 68.275 33.9833 68.5714 32.6885C69.2328 29.6809 71.9348 27.6217 74.9612 27.5187C75.139 27.5187 75.1421 27.2317 74.9612 27.2379C73.6363 27.2669 72.3468 27.671 71.2423 28.4033C70.1379 29.1355 69.2636 30.166 68.7212 31.375C67.9848 33.0442 68.0972 34.9755 67.9973 36.7601C67.9973 36.9411 68.2688 36.9411 68.2781 36.7601L68.2594 36.7445Z" fill="#016BD9"/>
<path d="M93.8433 48.8905H86.3553C86.0259 48.8942 85.6994 48.8299 85.396 48.7015C85.0926 48.5731 84.8191 48.3835 84.5924 48.1445C84.3657 47.9055 84.1908 47.6223 84.0786 47.3126C83.9664 47.0029 83.9194 46.6733 83.9404 46.3446L84.3336 38.8566C84.3754 38.1719 84.6751 37.5286 85.1725 37.0561C85.6698 36.5837 86.3277 36.3173 87.0136 36.3107H94.5016C94.8309 36.307 95.1574 36.3713 95.4606 36.4998C95.7638 36.6282 96.0372 36.8178 96.2636 37.0569C96.4901 37.2959 96.6647 37.5792 96.7765 37.8889C96.8883 38.1986 96.9349 38.5281 96.9134 38.8566L96.5234 46.3446C96.4802 47.0288 96.1799 47.6713 95.6829 48.1435C95.1859 48.6156 94.5288 48.8825 93.8433 48.8905Z" fill="#F4F7FE"/>
<path d="M89.0634 43.7301C88.5385 43.1555 88.2287 42.4169 88.1867 41.6397H88.1555C87.8435 41.6397 87.6251 41.3059 87.6469 40.8972C87.6688 40.4884 87.9308 40.1546 88.2335 40.1546H88.3115L88.3677 39.9549C90.1741 39.8582 91.1756 39.2623 91.7279 38.7756C91.8426 39.0195 92.0075 39.2364 92.2118 39.4122C92.4161 39.588 92.6552 39.7187 92.9135 39.7958C92.9416 39.9112 92.9665 40.0329 92.9852 40.1546H93.0632C93.3752 40.1546 93.5968 40.4853 93.5749 40.8972C93.5531 41.309 93.2879 41.6397 92.9852 41.6397H92.954C92.8273 42.3883 92.4809 43.0822 91.9588 43.6334C92.3857 43.7691 92.8362 43.8148 93.2817 43.7676C95.1069 43.6615 94.1428 39.9081 93.16 38.5634C92.5609 37.7397 92.224 37.356 91.8839 37.5088C91.5032 37.2998 89.2163 36.3576 87.7374 39.1312C86.2024 42.011 85.7468 44.6318 89.0634 43.7301Z" fill="#016BD9"/>
<path d="M94.0899 45.7486L92.2023 45.1465C92.2023 45.1465 90.5705 45.7705 90.1805 47.3305C89.9559 45.7705 88.3896 45.1465 88.3896 45.1465L86.4396 45.7486C85.2696 45.9109 84.7018 46.9124 84.4272 47.9482C84.6541 48.243 84.9464 48.4811 85.281 48.6435C85.6156 48.806 85.9834 48.8884 86.3554 48.8842H93.8434C94.2287 48.8824 94.6092 48.7979 94.959 48.6365C95.3089 48.475 95.62 48.2403 95.8714 47.9482C95.706 46.9124 95.2412 45.9109 94.0899 45.7486Z" fill="#016BD9"/>
<path d="M99.2629 47.7895C99.2739 47.642 99.2739 47.4939 99.2629 47.3464L100.009 46.7037C99.942 46.3945 99.8372 46.0947 99.6966 45.8114L98.7387 45.8613C98.5724 45.6257 98.3727 45.4155 98.1459 45.2373L98.2458 44.2826C97.971 44.124 97.6776 44.0003 97.3722 43.9144L96.6733 44.6164C96.5275 44.5965 96.3805 44.5861 96.2334 44.5852C96.0841 44.5861 95.9351 44.5965 95.7872 44.6164L95.185 43.9082C94.8679 43.9945 94.5621 44.1181 94.274 44.2764V45.2404C94.0283 45.4189 93.807 45.6287 93.6157 45.8644L92.6641 45.8145C92.4917 46.0953 92.3515 46.3947 92.246 46.7068L92.923 47.3496C92.8941 47.4957 92.8763 47.6438 92.87 47.7926C92.859 47.939 92.859 48.0861 92.87 48.2325L92.1274 48.8752C92.1953 49.1841 92.3001 49.4837 92.4394 49.7676L93.3973 49.7176C93.5653 49.9519 93.7648 50.1618 93.9901 50.3416L93.8934 51.2964C94.167 51.455 94.4594 51.5787 94.7638 51.6645L95.444 50.9563C95.5898 50.9762 95.7368 50.9866 95.8839 50.9875C96.0321 50.9867 96.1801 50.9762 96.327 50.9563L96.9322 51.6645C97.249 51.5771 97.5547 51.4536 97.8433 51.2964V50.3416C98.0876 50.1616 98.3087 49.952 98.5016 49.7176L99.4532 49.7676C99.6258 49.4873 99.7651 49.1878 99.8682 48.8752L99.2161 48.2294C99.2412 48.0839 99.2569 47.937 99.2629 47.7895ZM96.0118 48.791C95.8819 48.7935 95.7529 48.7689 95.633 48.7188C95.5131 48.6687 95.4049 48.5941 95.3154 48.4999C95.2259 48.4057 95.157 48.2939 95.113 48.1716C95.0691 48.0492 95.0511 47.9191 95.0602 47.7895C95.0775 47.5196 95.1961 47.2661 95.3922 47.0799C95.5883 46.8936 95.8475 46.7882 96.1179 46.7848C96.2468 46.7845 96.3744 46.8108 96.4927 46.8621C96.611 46.9133 96.7174 46.9885 96.8053 47.0828C96.8932 47.1771 96.9606 47.2886 97.0034 47.4102C97.0462 47.5318 97.0634 47.6609 97.0539 47.7895C97.0375 48.0567 96.9213 48.308 96.7283 48.4935C96.5352 48.6791 96.2795 48.7852 96.0118 48.791Z" fill="#016BD9"/>
<path opacity="0.4" d="M99.2629 47.7895C99.2739 47.642 99.2739 47.4939 99.2629 47.3464L100.009 46.7037C99.942 46.3945 99.8372 46.0947 99.6966 45.8114L98.7387 45.8613C98.5724 45.6257 98.3727 45.4155 98.1459 45.2373L98.2458 44.2826C97.971 44.124 97.6776 44.0003 97.3722 43.9144L96.6733 44.6164C96.5275 44.5965 96.3805 44.5861 96.2334 44.5852C96.0841 44.5861 95.9351 44.5965 95.7872 44.6164L95.185 43.9082C94.8679 43.9945 94.5621 44.1181 94.274 44.2764V45.2404C94.0283 45.4189 93.807 45.6287 93.6157 45.8644L92.6641 45.8145C92.4917 46.0953 92.3515 46.3947 92.246 46.7068L92.923 47.3496C92.8941 47.4957 92.8763 47.6438 92.87 47.7926C92.859 47.939 92.859 48.0861 92.87 48.2325L92.1274 48.8752C92.1953 49.1841 92.3001 49.4837 92.4394 49.7676L93.3973 49.7176C93.5653 49.9519 93.7648 50.1618 93.9901 50.3416L93.8934 51.2964C94.167 51.455 94.4594 51.5787 94.7638 51.6645L95.444 50.9563C95.5898 50.9762 95.7368 50.9866 95.8839 50.9875C96.0321 50.9867 96.1801 50.9762 96.327 50.9563L96.9322 51.6645C97.249 51.5771 97.5547 51.4536 97.8433 51.2964V50.3416C98.0876 50.1616 98.3087 49.952 98.5016 49.7176L99.4532 49.7676C99.6258 49.4873 99.7651 49.1878 99.8682 48.8752L99.2161 48.2294C99.2412 48.0839 99.2569 47.937 99.2629 47.7895ZM96.0118 48.791C95.8819 48.7935 95.7529 48.7689 95.633 48.7188C95.5131 48.6687 95.4049 48.5941 95.3154 48.4999C95.2259 48.4057 95.157 48.2939 95.113 48.1716C95.0691 48.0492 95.0511 47.9191 95.0602 47.7895C95.0775 47.5196 95.1961 47.2661 95.3922 47.0799C95.5883 46.8936 95.8475 46.7882 96.1179 46.7848C96.2468 46.7845 96.3744 46.8108 96.4927 46.8621C96.611 46.9133 96.7174 46.9885 96.8053 47.0828C96.8932 47.1771 96.9606 47.2886 97.0034 47.4102C97.0462 47.5318 97.0634 47.6609 97.0539 47.7895C97.0375 48.0567 96.9213 48.308 96.7283 48.4935C96.5352 48.6791 96.2795 48.7852 96.0118 48.791Z" fill="#F4F7FE"/>
<path d="M96.0118 48.7908C95.8818 48.7933 95.7528 48.7687 95.6329 48.7186C95.513 48.6685 95.4048 48.5939 95.3153 48.4997C95.2258 48.4055 95.1569 48.2937 95.113 48.1714C95.069 48.0491 95.051 47.919 95.0602 47.7893C95.0774 47.5194 95.196 47.266 95.3921 47.0797C95.5882 46.8934 95.8474 46.7881 96.1179 46.7847C96.2468 46.7843 96.3744 46.8106 96.4926 46.8619C96.6109 46.9132 96.7173 46.9883 96.8052 47.0826C96.8931 47.1769 96.9605 47.2884 97.0033 47.41C97.0461 47.5316 97.0633 47.6607 97.0539 47.7893C97.0375 48.0565 96.9212 48.3079 96.7282 48.4934C96.5352 48.6789 96.2794 48.7851 96.0118 48.7908Z" fill="#F4F7FE"/>
<path d="M89.5783 83.4196H88.5144L88.6111 81.5913H89.6719L89.5783 83.4196Z" fill="#016BD9"/>
<path d="M94.4175 83.4197H93.3567L93.5158 80.4058H94.5766L94.4175 83.4197Z" fill="#016BD9"/>
<path d="M99.2598 83.4197H98.199L98.4174 79.2202H99.4813L99.2598 83.4197Z" fill="#016BD9"/>
<path d="M104.102 83.4196H103.038L103.322 78.0376H104.383L104.102 83.4196Z" fill="#F4F7FE"/>
<path d="M74.905 83.4197H80.3026C81.0297 83.4124 81.7271 83.13 82.2545 82.6293C82.7818 82.1286 83.1 81.4467 83.1449 80.7209C83.1672 80.3726 83.1174 80.0234 82.9986 79.6951C82.8798 79.3669 82.6945 79.0668 82.4544 78.8134C82.2142 78.5601 81.9244 78.3591 81.603 78.2229C81.2816 78.0868 80.9355 78.0184 80.5865 78.0221H75.192C74.4648 78.0294 73.7674 78.3118 73.2401 78.8125C72.7127 79.3133 72.3946 79.9951 72.3497 80.7209C72.3274 81.069 72.3771 81.4179 72.4957 81.7459C72.6143 82.0739 72.7993 82.374 73.0391 82.6272C73.2789 82.8805 73.5684 83.0816 73.8894 83.218C74.2105 83.3543 74.5562 83.423 74.905 83.4197Z" fill="#F4F7FE"/>
<path d="M75.1576 78.6242H80.5552C81.2093 78.6169 81.8409 78.8629 82.3178 79.3106C82.7946 79.7584 83.0798 80.3733 83.1136 81.0266C83.1292 80.9299 83.1386 80.83 83.1448 80.7302C83.1672 80.3818 83.1174 80.0326 82.9985 79.7044C82.8797 79.3762 82.6945 79.076 82.4543 78.8227C82.2142 78.5694 81.9243 78.3684 81.6029 78.2322C81.2815 78.096 80.9355 78.0277 80.5864 78.0314H75.1919C74.4648 78.0387 73.7674 78.3211 73.24 78.8218C72.7127 79.3225 72.3945 80.0044 72.3496 80.7302C72.3496 80.83 72.3496 80.9299 72.3496 81.0266C72.4627 80.3609 72.8056 79.756 73.3187 79.317C73.8317 78.8781 74.4825 78.6329 75.1576 78.6242Z" fill="#016BD9"/>
<path opacity="0.3" d="M75.1576 78.6242H80.5552C81.2093 78.6169 81.8409 78.8629 82.3178 79.3106C82.7946 79.7584 83.0798 80.3733 83.1136 81.0266C83.1292 80.9299 83.1386 80.83 83.1448 80.7302C83.1672 80.3818 83.1174 80.0326 82.9985 79.7044C82.8797 79.3762 82.6945 79.076 82.4543 78.8227C82.2142 78.5694 81.9243 78.3684 81.6029 78.2322C81.2815 78.096 80.9355 78.0277 80.5864 78.0314H75.1919C74.4648 78.0387 73.7674 78.3211 73.24 78.8218C72.7127 79.3225 72.3945 80.0044 72.3496 80.7302C72.3496 80.83 72.3496 80.9299 72.3496 81.0266C72.4627 80.3609 72.8056 79.756 73.3187 79.317C73.8317 78.8781 74.4825 78.6329 75.1576 78.6242Z" fill="#F4F7FE"/>
<path d="M76.8801 82.5984C77.9759 81.5305 78.0425 79.8214 77.0287 78.7811C76.0149 77.7408 74.3047 77.7631 73.2088 78.831C72.113 79.8989 72.0465 81.608 73.0602 82.6483C74.074 83.6886 75.7842 83.6663 76.8801 82.5984Z" fill="#016BD9"/>
<path d="M71.863 106.685H70.8022L70.9302 104.264H71.991L71.863 106.685Z" fill="#016BD9"/>
<path d="M75.8003 106.093H74.7395L74.7894 105.154H75.8502L75.8003 106.093Z" fill="#016BD9"/>
<path d="M79.6909 106.389H78.6301L78.7081 104.857H79.772L79.6909 106.389Z" fill="#016BD9"/>
<path d="M83.613 106.093H82.5491L82.599 105.154H83.6629L83.613 106.093Z" fill="#016BD9"/>
<path d="M87.488 106.685H86.4241L86.552 104.264H87.6128L87.488 106.685Z" fill="#016BD9"/>
<path d="M91.4221 106.093H90.3613L90.4112 105.154H91.472L91.4221 106.093Z" fill="#016BD9"/>
<path d="M95.313 106.389H94.2522L94.3333 104.857H95.3941L95.313 106.389Z" fill="#016BD9"/>
<path d="M99.2346 106.093H98.1738L98.2206 105.154H99.2845L99.2346 106.093Z" fill="#016BD9"/>
<path d="M103.11 106.685H102.049L102.174 104.264H103.238L103.11 106.685Z" fill="#016BD9"/>
<g opacity="0.3">
<path d="M71.863 106.685H70.8022L70.9302 104.264H71.991L71.863 106.685Z" fill="black"/>
<path d="M75.8005 106.092H74.7397L74.7897 105.153H75.8505L75.8005 106.092Z" fill="black"/>
<path d="M79.6912 106.389H78.6304L78.7084 104.857H79.7723L79.6912 106.389Z" fill="black"/>
<path d="M83.613 106.092H82.5491L82.599 105.153H83.6629L83.613 106.092Z" fill="black"/>
<path d="M87.488 106.685H86.4241L86.552 104.264H87.6128L87.488 106.685Z" fill="black"/>
<path d="M91.4224 106.092H90.3616L90.4115 105.153H91.4723L91.4224 106.092Z" fill="black"/>
<path d="M95.313 106.389H94.2522L94.3333 104.857H95.3941L95.313 106.389Z" fill="black"/>
<path d="M99.2349 106.092H98.1741L98.2209 105.153H99.2848L99.2349 106.092Z" fill="black"/>
<path d="M103.11 106.685H102.049L102.174 104.264H103.238L103.11 106.685Z" fill="black"/>
</g>
<path d="M84.4895 107.085C84.5051 106.817 84.5519 105.89 84.5675 105.625C84.5831 105.359 84.6299 104.43 84.6424 104.164C84.6549 103.976 84.6283 103.787 84.5643 103.609C84.5003 103.431 84.4003 103.269 84.2706 103.131C84.1408 102.994 83.9841 102.885 83.8103 102.811C83.6364 102.737 83.4492 102.7 83.2602 102.701C82.8665 102.706 82.4891 102.859 82.2038 103.131C81.9186 103.402 81.7465 103.771 81.7221 104.164C81.7065 104.43 81.6597 105.356 81.6441 105.625C81.6285 105.893 81.5817 106.817 81.5692 107.085C81.5572 107.273 81.5841 107.462 81.6483 107.639C81.7125 107.817 81.8125 107.979 81.9422 108.116C82.0719 108.253 82.2285 108.362 82.4021 108.436C82.5757 108.509 82.7627 108.547 82.9513 108.545C83.3446 108.54 83.7215 108.387 84.0067 108.116C84.2919 107.846 84.4644 107.477 84.4895 107.085Z" fill="#016BD9"/>
<path d="M74.2216 96.43H79.6223C80.3491 96.4226 81.0462 96.1401 81.573 95.6393C82.0998 95.1385 82.4173 94.4567 82.4615 93.7312C82.4843 93.383 82.4349 93.0338 82.3164 92.7056C82.198 92.3774 82.013 92.0772 81.7731 91.8238C81.5332 91.5705 81.2435 91.3694 80.9223 91.2332C80.601 91.097 80.2551 91.0286 79.9062 91.0324H74.5055C73.7783 91.0397 73.0809 91.3221 72.5536 91.8228C72.0262 92.3235 71.7081 93.0054 71.6632 93.7312C71.6408 94.0795 71.6906 94.4287 71.8094 94.7569C71.9282 95.0852 72.1135 95.3853 72.3537 95.6387C72.5938 95.892 72.8836 96.093 73.2051 96.2292C73.5265 96.3653 73.8725 96.4337 74.2216 96.43Z" fill="#F4F7FE"/>
<path d="M74.4744 91.6252H79.872C80.5258 91.6179 81.1571 91.864 81.6334 92.3118C82.1098 92.7597 82.3943 93.3746 82.4273 94.0276C82.4441 93.9295 82.4545 93.8305 82.4585 93.7312C82.4813 93.383 82.4319 93.0338 82.3135 92.7056C82.195 92.3774 82.0101 92.0772 81.7702 91.8238C81.5303 91.5705 81.2406 91.3694 80.9193 91.2332C80.5981 91.097 80.2522 91.0286 79.9033 91.0324H74.5057C73.7785 91.0397 73.0811 91.3221 72.5537 91.8228C72.0264 92.3235 71.7083 93.0054 71.6633 93.7312C71.6633 93.831 71.6633 93.9309 71.6633 94.0276C71.7754 93.3609 72.1184 92.7548 72.6324 92.3156C73.1463 91.8763 73.7984 91.6319 74.4744 91.6252Z" fill="#016BD9"/>
<path opacity="0.3" d="M74.4744 91.6252H79.872C80.5258 91.6179 81.1571 91.864 81.6334 92.3118C82.1098 92.7597 82.3943 93.3746 82.4273 94.0276C82.4441 93.9295 82.4545 93.8305 82.4585 93.7312C82.4813 93.383 82.4319 93.0338 82.3135 92.7056C82.195 92.3774 82.0101 92.0772 81.7702 91.8238C81.5303 91.5705 81.2406 91.3694 80.9193 91.2332C80.5981 91.097 80.2522 91.0286 79.9033 91.0324H74.5057C73.7785 91.0397 73.0811 91.3221 72.5537 91.8228C72.0264 92.3235 71.7083 93.0054 71.6633 93.7312C71.6633 93.831 71.6633 93.9309 71.6633 94.0276C71.7754 93.3609 72.1184 92.7548 72.6324 92.3156C73.1463 91.8763 73.7984 91.6319 74.4744 91.6252Z" fill="#F4F7FE"/>
<path d="M77.064 93.7312C77.109 93.0054 77.4271 92.3235 77.9544 91.8228C78.4818 91.3221 79.1792 91.0397 79.9064 91.0324C80.2553 91.0286 80.6012 91.097 80.9225 91.2332C81.2437 91.3694 81.5334 91.5705 81.7733 91.8238C82.0132 92.0772 82.1982 92.3774 82.3166 92.7056C82.4351 93.0338 82.4844 93.383 82.4616 93.7312C82.4175 94.4567 82.1 95.1385 81.5732 95.6393C81.0463 96.1401 80.3493 96.4226 79.6224 96.43C79.2734 96.4337 78.9273 96.3653 78.6059 96.2292C78.2845 96.093 77.9947 95.892 77.7545 95.6387C77.5144 95.3853 77.3291 95.0852 77.2103 94.7569C77.0915 94.4287 77.0417 94.0795 77.064 93.7312Z" fill="#016BD9"/>
<path d="M74.7521 58.6562H104.208C104.594 58.6522 104.964 58.5024 105.244 58.2368C105.524 57.9711 105.694 57.6094 105.718 57.2241C105.73 57.0394 105.703 56.8542 105.64 56.6802C105.577 56.5062 105.479 56.347 105.351 56.2127C105.224 56.0783 105.07 55.9716 104.9 55.8993C104.729 55.8269 104.546 55.7904 104.361 55.792H74.9019C74.5162 55.7961 74.1463 55.946 73.8667 56.2117C73.5871 56.4774 73.4186 56.8391 73.3949 57.2241C73.3824 57.4091 73.4083 57.5946 73.4711 57.7691C73.5339 57.9435 73.6321 58.103 73.7597 58.2376C73.8872 58.3721 74.0412 58.4788 74.212 58.5509C74.3828 58.6229 74.5667 58.6588 74.7521 58.6562Z" fill="#F4F7FE"/>
<path d="M74.9018 56.4253H104.345C104.653 56.4226 104.952 56.526 105.193 56.7181C105.433 56.9102 105.6 57.1792 105.665 57.4799C105.682 57.3985 105.695 57.3162 105.702 57.2334C105.714 57.0487 105.687 56.8635 105.624 56.6895C105.561 56.5155 105.463 56.3563 105.336 56.222C105.208 56.0876 105.055 55.9809 104.884 55.9085C104.714 55.8362 104.53 55.7997 104.345 55.8013H74.9018C74.5161 55.8053 74.1463 55.9553 73.8667 56.221C73.5871 56.4867 73.4185 56.8484 73.3948 57.2334C73.3881 57.3614 73.4007 57.4898 73.4323 57.614C73.508 57.2796 73.6942 56.9804 73.9608 56.7647C74.2274 56.549 74.5589 56.4295 74.9018 56.4253Z" fill="#016BD9"/>
<path opacity="0.3" d="M74.9018 56.4253H104.345C104.653 56.4226 104.952 56.526 105.193 56.7181C105.433 56.9102 105.6 57.1792 105.665 57.4799C105.682 57.3985 105.695 57.3162 105.702 57.2334C105.714 57.0487 105.687 56.8635 105.624 56.6895C105.561 56.5155 105.463 56.3563 105.336 56.222C105.208 56.0876 105.055 55.9809 104.884 55.9085C104.714 55.8362 104.53 55.7997 104.345 55.8013H74.9018C74.5161 55.8053 74.1463 55.9553 73.8667 56.221C73.5871 56.4867 73.4185 56.8484 73.3948 57.2334C73.3881 57.3614 73.4007 57.4898 73.4323 57.614C73.508 57.2796 73.6942 56.9804 73.9608 56.7647C74.2274 56.549 74.5589 56.4295 74.9018 56.4253Z" fill="#F4F7FE"/>
<path d="M81.9708 59.1116C83.0669 58.0438 83.1337 56.3348 82.1201 55.2943C81.1065 54.2538 79.3963 54.2759 78.3002 55.3436C77.2042 56.4113 77.1374 58.1203 78.151 59.1608C79.1646 60.2013 80.8748 60.1793 81.9708 59.1116Z" fill="#016BD9"/>
<path d="M103.693 92.0713C103.702 91.9371 103.683 91.8026 103.637 91.6761C103.591 91.5497 103.52 91.4341 103.427 91.3366C103.335 91.239 103.223 91.1617 103.099 91.1093C102.975 91.057 102.842 91.0307 102.707 91.0323H94.015C93.7351 91.0356 93.4669 91.1445 93.2638 91.3372C93.0608 91.5298 92.9379 91.792 92.9199 92.0713L92.7452 95.3909C92.7366 95.5251 92.7558 95.6596 92.8016 95.7861C92.8474 95.9125 92.9188 96.0281 93.0113 96.1256C93.1039 96.2232 93.2156 96.3005 93.3394 96.3529C93.4633 96.4052 93.5966 96.4315 93.7311 96.4299H102.423C102.703 96.4266 102.972 96.3177 103.175 96.125C103.378 95.9324 103.5 95.6702 103.519 95.3909L103.693 92.0713Z" fill="#016BD9"/>
<path d="M93.9838 91.6251H102.676C102.811 91.6235 102.944 91.6498 103.068 91.7021C103.192 91.7545 103.303 91.8318 103.396 91.9294C103.488 92.0269 103.56 92.1425 103.606 92.2689C103.651 92.3954 103.671 92.5299 103.662 92.6641L103.693 92.0713C103.702 91.9371 103.683 91.8026 103.637 91.6761C103.591 91.5497 103.52 91.4341 103.427 91.3366C103.334 91.239 103.223 91.1617 103.099 91.1093C102.975 91.057 102.842 91.0307 102.707 91.0323H94.015C93.7351 91.0356 93.4669 91.1445 93.2638 91.3372C93.0608 91.5298 92.9379 91.792 92.9199 92.0713L92.8887 92.6641C92.9067 92.3848 93.0296 92.1226 93.2326 91.9299C93.4356 91.7373 93.7039 91.6284 93.9838 91.6251Z" fill="#016BD9"/>
<path opacity="0.3" d="M93.9838 91.6251H102.676C102.811 91.6235 102.944 91.6498 103.068 91.7021C103.192 91.7545 103.303 91.8318 103.396 91.9294C103.488 92.0269 103.56 92.1425 103.606 92.2689C103.651 92.3954 103.671 92.5299 103.662 92.6641L103.693 92.0713C103.702 91.9371 103.683 91.8026 103.637 91.6761C103.591 91.5497 103.52 91.4341 103.427 91.3366C103.334 91.239 103.223 91.1617 103.099 91.1093C102.975 91.057 102.842 91.0307 102.707 91.0323H94.015C93.7351 91.0356 93.4669 91.1445 93.2638 91.3372C93.0608 91.5298 92.9379 91.792 92.9199 92.0713L92.8887 92.6641C92.9067 92.3848 93.0296 92.1226 93.2326 91.9299C93.4356 91.7373 93.7039 91.6284 93.9838 91.6251Z" fill="black"/>
<path d="M98.3206 92.0713C98.3292 91.9371 98.31 91.8026 98.2642 91.6761C98.2184 91.5497 98.147 91.4341 98.0544 91.3366C97.9619 91.239 97.8502 91.1617 97.7263 91.1093C97.6025 91.057 97.4691 91.0307 97.3347 91.0323H94.015C93.7351 91.0356 93.4669 91.1445 93.2638 91.3372C93.0608 91.5298 92.9379 91.792 92.9199 92.0713L92.7452 95.3909C92.7366 95.5251 92.7558 95.6596 92.8016 95.7861C92.8474 95.9125 92.9188 96.0281 93.0113 96.1256C93.1039 96.2232 93.2156 96.3005 93.3394 96.3529C93.4633 96.4052 93.5966 96.4315 93.7311 96.4299H97.0508C97.3306 96.4266 97.5989 96.3177 97.8019 96.125C98.005 95.9324 98.1278 95.6702 98.1459 95.3909L98.3206 92.0713Z" fill="#F4F7FE"/>
<path d="M96.0149 94.6452H94.9541L95.0508 92.8169H96.1116L96.0149 94.6452Z" fill="#016BD9"/>
<path d="M103.727 67.5451H74.2871C73.9013 67.5498 73.5315 67.6999 73.2515 67.9653C72.9716 68.2308 72.8021 68.5922 72.777 68.9772C72.765 69.162 72.7912 69.3474 72.8542 69.5216C72.9172 69.6958 73.0154 69.8552 73.1429 69.9896C73.2703 70.1241 73.4241 70.2308 73.5947 70.303C73.7653 70.3752 73.949 70.4114 74.1342 70.4093H103.584C103.97 70.406 104.34 70.2563 104.62 69.9904C104.9 69.7246 105.068 69.3624 105.091 68.9772C105.103 68.7918 105.076 68.6059 105.013 68.4313C104.95 68.2566 104.851 68.097 104.723 67.9624C104.595 67.8279 104.44 67.7213 104.269 67.6495C104.098 67.5777 103.913 67.5421 103.727 67.5451Z" fill="#016BD9"/>
<path opacity="0.3" d="M74.2873 68.1693H103.728C104.035 68.1658 104.334 68.2686 104.575 68.4601C104.815 68.6517 104.982 68.9203 105.047 69.2207C105.068 69.141 105.08 69.0595 105.085 68.9773C105.097 68.7925 105.071 68.6071 105.008 68.4329C104.945 68.2587 104.846 68.0994 104.719 67.9649C104.592 67.8304 104.438 67.7238 104.267 67.6516C104.096 67.5793 103.913 67.5432 103.728 67.5453H74.2873C74.062 67.5404 73.8386 67.587 73.6341 67.6817C73.4296 67.7763 73.2495 67.9164 73.1074 68.0913C72.9653 68.2662 72.8651 68.4712 72.8144 68.6907C72.7636 68.9103 72.7637 69.1385 72.8146 69.358C72.8915 69.0235 73.0784 68.7246 73.3454 68.509C73.6124 68.2935 73.9441 68.1738 74.2873 68.1693Z" fill="black"/>
<path d="M99.1598 71.6761H96.904C96.7017 71.6781 96.5012 71.6386 96.3148 71.5601C96.1284 71.4815 95.9601 71.3655 95.8203 71.2193C95.6805 71.073 95.5722 70.8997 95.5021 70.71C95.432 70.5202 95.4015 70.3181 95.4126 70.1161L95.5312 67.8604C95.5602 67.4395 95.747 67.0451 96.0541 66.756C96.3612 66.4668 96.7661 66.3041 97.1879 66.3004H99.4437C99.6458 66.2983 99.8462 66.3378 100.032 66.4165C100.219 66.4951 100.387 66.6111 100.526 66.7574C100.666 66.9036 100.774 67.077 100.844 67.2668C100.913 67.4565 100.943 67.6585 100.932 67.8604L100.813 70.1161C100.784 70.5364 100.598 70.9304 100.292 71.2195C99.9852 71.5086 99.581 71.6716 99.1598 71.6761Z" fill="#F4F7FE"/>
<path d="M98.773 69.8913H97.7122L97.8089 68.063H98.8697L98.773 69.8913Z" fill="#016BD9"/>
<path d="M52.3568 59.4549L48.36 63.9789C48.672 66.1379 49.3241 72.4029 49.3241 72.4029C48.7251 73.1954 47.2618 72.9707 47.2618 72.9707C46.0669 69.9948 45.5778 66.7825 45.8328 63.5858C46.1136 60.6623 49.8639 54.9122 52.5346 53.2898C52.9703 53.026 53.4423 52.8274 53.9355 52.7001L54.4628 52.6377L52.5908 59.5922L52.3568 59.4549Z" fill="#016BD9"/>
<path opacity="0.6" d="M52.3568 59.4549L48.36 63.9789C48.672 66.1379 49.3241 72.4029 49.3241 72.4029C48.7251 73.1954 47.2618 72.9707 47.2618 72.9707C46.0669 69.9948 45.5778 66.7825 45.8328 63.5858C46.1136 60.6623 49.8639 54.9122 52.5346 53.2898C52.9703 53.026 53.4423 52.8274 53.9355 52.7001L54.4628 52.6377L52.5908 59.5922L52.3568 59.4549Z" fill="black"/>
<path d="M49.1056 72.896L50.0728 73.9287C50.1043 73.9631 50.1287 74.0034 50.1446 74.0472L50.7124 75.6447C50.7468 75.7287 50.7468 75.8228 50.7124 75.9068L50.4379 76.4715C50.4153 76.5184 50.3821 76.5594 50.3409 76.5914C50.2998 76.6233 50.2518 76.6453 50.2007 76.6556L48.2258 77.0643C48.1815 77.0733 48.1359 77.0734 48.0915 77.0646C48.0472 77.0558 48.005 77.0383 47.9676 77.013C47.9301 76.9878 47.898 76.9553 47.8733 76.9175C47.8485 76.8796 47.8315 76.8373 47.8233 76.7928L47.4427 74.69C47.4338 74.6478 47.4338 74.6042 47.4427 74.562L47.7047 73.2142C47.7182 73.147 47.7516 73.0855 47.8005 73.0376C47.8495 72.9897 47.9118 72.9577 47.9793 72.9459L48.7999 72.7992C48.8549 72.789 48.9115 72.7924 48.9649 72.8093C49.0182 72.8262 49.0665 72.8559 49.1056 72.896Z" fill="#FAB27B"/>
<path d="M49.9387 72.6587L46.8623 74.0534L46.8218 72.5651L49.661 71.4731L49.9387 72.6587Z" fill="#016BD9"/>
<path opacity="0.5" d="M49.9387 72.6587L46.8623 74.0534L46.8218 72.5651L49.661 71.4731L49.9387 72.6587Z" fill="#F4F7FE"/>
<path d="M48.7469 78.1626C46.9124 84.7146 47.6892 94.3866 46.6815 100.873C45.9888 105.341 41.2527 120.045 41.2527 120.045L45.4335 121.312C45.4335 121.312 50.6501 108.361 51.6735 104.502C53.3146 98.2398 55.7794 86.3588 55.7794 86.3588C55.7794 86.3588 56.6998 82.9892 56.2817 82.6148C55.8636 82.2404 48.7469 78.1626 48.7469 78.1626Z" fill="#016BD9"/>
<path opacity="0.3" d="M53.3521 82.6616L56.3753 83.6413L55.2428 88.9453C55.2428 88.9453 55.7981 83.8722 53.3521 82.6616Z" fill="black"/>
<path d="M42.0918 119.855L41.343 122.229L43.371 123.14L44.3757 120.619L42.0918 119.855Z" fill="#FAB27B"/>
<path opacity="0.2" d="M41.6489 121.262L43.7892 122.089L44.0732 121.375L41.8236 120.71L41.6489 121.262Z" fill="black"/>
<path d="M41.2963 118.744L46.41 120.142L45.4834 121.789L41.0093 120.47L41.2963 118.744Z" fill="#016BD9"/>
<path opacity="0.5" d="M41.2963 118.744L46.41 120.142L45.4834 121.789L41.0093 120.47L41.2963 118.744Z" fill="#F4F7FE"/>
<path d="M43.8046 123.465C43.7944 123.458 43.7864 123.448 43.7814 123.436C43.7765 123.425 43.7748 123.412 43.7766 123.4C43.779 123.388 43.7851 123.377 43.7941 123.368C43.803 123.36 43.8143 123.354 43.8265 123.353C43.8733 123.353 44.8904 123.197 45.2461 123.462C45.2797 123.486 45.3083 123.516 45.3303 123.551C45.3523 123.585 45.3671 123.624 45.374 123.665C45.3859 123.71 45.3833 123.759 45.3665 123.803C45.3497 123.847 45.3196 123.885 45.2804 123.911C45.0207 123.975 44.7468 123.941 44.5098 123.818C44.2649 123.721 44.0289 123.603 43.8046 123.465ZM44.0168 123.465C44.4411 123.696 45.0433 123.927 45.2149 123.814C45.2398 123.814 45.2679 123.774 45.2523 123.687C45.2495 123.661 45.2407 123.637 45.2266 123.616C45.2125 123.595 45.1935 123.577 45.1712 123.565C45.1412 123.541 45.1075 123.522 45.0714 123.509C44.7262 123.425 44.3683 123.408 44.0168 123.459V123.465Z" fill="#016BD9"/>
<path d="M43.7767 123.449C43.7712 123.44 43.7683 123.429 43.7683 123.418C43.7683 123.407 43.7712 123.396 43.7767 123.387C43.7923 123.359 44.1074 122.741 44.5099 122.61C44.5673 122.59 44.6281 122.582 44.6887 122.586C44.7493 122.59 44.8084 122.607 44.8624 122.635C45.0122 122.713 45.0309 122.809 45.0091 122.878C44.956 123.165 44.1792 123.458 43.8453 123.474C43.8373 123.477 43.8284 123.477 43.8204 123.474C43.8116 123.474 43.803 123.471 43.7954 123.467C43.7877 123.463 43.7813 123.456 43.7767 123.449ZM44.7751 122.728C44.7037 122.701 44.6249 122.701 44.5536 122.728C44.2924 122.869 44.081 123.087 43.9483 123.352C44.3133 123.293 44.85 123.04 44.8843 122.869C44.8843 122.853 44.8843 122.809 44.7969 122.759H44.7626L44.7751 122.728Z" fill="#016BD9"/>
<path d="M43.6799 123.034L41.0747 122.014C41.0271 121.994 40.9741 121.992 40.9246 122.006C40.8752 122.021 40.8324 122.053 40.8033 122.095L39.5023 124.033C39.4467 124.115 39.4257 124.216 39.4438 124.313C39.4619 124.411 39.5177 124.497 39.599 124.554L39.6707 124.591C40.6067 124.941 41.471 125.215 42.641 125.677C44.02 126.22 43.6051 126.248 45.2181 126.906C46.1915 127.302 46.8062 126.26 46.4131 126.045C44.6097 125.062 44.6378 124.41 44.1698 123.446C44.0635 123.253 43.8888 123.106 43.6799 123.034Z" fill="#263238"/>
<path d="M60.6777 121.79L60.7245 124.077L62.9366 124.289L63.0708 121.79H60.6777Z" fill="#FAB27B"/>
<path opacity="0.2" d="M63.0146 122.85L63.0458 122.251L60.6902 122.348L60.7058 123.047L63.0146 122.85Z" fill="black"/>
<path d="M48.7468 78.1624C49.4394 74.8614 52.2037 71.9224 52.2037 71.9224L62.8117 72.6025C62.8117 72.6025 63.4794 79.4166 63.6354 81.6942C63.9474 86.2931 65.2391 93.4348 65.2734 98.0461C65.3202 104.286 63.8913 120.844 63.8913 120.844L59.8852 121.318C59.8852 121.318 59.9445 106.002 59.2893 100.227C58.7932 95.859 55.8042 83.8595 55.8042 83.8595C55.8042 83.8595 47.5893 83.6972 48.7468 78.1624Z" fill="#016BD9"/>
<path d="M59.1926 120.673L64.4841 120.348L64.1378 122.205L59.4765 122.398L59.1926 120.673Z" fill="#016BD9"/>
<path opacity="0.5" d="M59.1926 120.673L64.4841 120.348L64.1378 122.205L59.4765 122.398L59.1926 120.673Z" fill="#F4F7FE"/>
<path d="M63.417 124.448C63.4047 124.445 63.3937 124.438 63.3853 124.428C63.377 124.419 63.3717 124.407 63.3702 124.395C63.3678 124.383 63.3696 124.37 63.3752 124.359C63.3809 124.349 63.3902 124.34 63.4014 124.335C63.4419 124.314 64.3561 123.836 64.7773 123.973C64.8566 123.996 64.9239 124.048 64.9645 124.12C64.9913 124.159 65.0057 124.205 65.0057 124.253C65.0057 124.3 64.9913 124.346 64.9645 124.385C64.7398 124.532 64.4687 124.591 64.2032 124.551C63.9387 124.539 63.6757 124.504 63.417 124.448ZM63.6167 124.373C64.0909 124.451 64.7367 124.473 64.8647 124.31C64.8834 124.292 64.899 124.254 64.8647 124.179C64.8539 124.156 64.8378 124.136 64.8178 124.12C64.7977 124.105 64.7742 124.094 64.7492 124.089C64.712 124.077 64.673 124.07 64.6338 124.07C64.2784 124.105 63.9331 124.208 63.6167 124.373Z" fill="#016BD9"/>
<path d="M63.3826 124.441C63.3746 124.434 63.3682 124.426 63.3638 124.416C63.3595 124.406 63.3574 124.396 63.3577 124.385C63.3577 124.354 63.4606 123.668 63.7976 123.412C63.8451 123.374 63.8998 123.347 63.9583 123.331C64.0168 123.316 64.0778 123.312 64.1377 123.321C64.303 123.343 64.353 123.43 64.3561 123.499C64.3998 123.789 63.7633 124.323 63.4513 124.435C63.4475 124.437 63.4432 124.438 63.4388 124.438C63.4344 124.438 63.4301 124.437 63.4263 124.435C63.4198 124.439 63.4126 124.442 63.4051 124.443C63.3976 124.444 63.39 124.443 63.3826 124.441ZM64.094 123.434C64.0164 123.431 63.9403 123.455 63.8787 123.502C63.6798 123.716 63.5504 123.984 63.5074 124.273C63.8194 124.098 64.2562 123.68 64.2469 123.505C64.2469 123.49 64.2469 123.446 64.1283 123.434H64.094Z" fill="#016BD9"/>
<path d="M63.1674 124.079L60.3594 123.967C60.308 123.965 60.2575 123.981 60.2161 124.011C60.1748 124.042 60.145 124.086 60.1316 124.135L59.5357 126.391C59.523 126.439 59.5197 126.488 59.5262 126.537C59.5326 126.586 59.5486 126.633 59.5732 126.675C59.5979 126.718 59.6306 126.755 59.6697 126.785C59.7088 126.815 59.7534 126.837 59.8009 126.85C59.8268 126.853 59.853 126.853 59.8789 126.85C60.8867 126.872 61.7852 126.85 63.0426 126.903C64.5215 126.962 64.1408 127.124 65.8818 127.215C66.9301 127.271 67.1672 126.085 66.7273 126.011C64.6993 125.674 64.5121 125.05 63.7571 124.291C63.5919 124.153 63.3829 124.078 63.1674 124.079Z" fill="#263238"/>
<path d="M59.8508 50.0078C59.6667 50.5975 59.205 51.5928 59.8508 52.482L56.6653 52.17C56.6653 52.17 57.0054 49.8206 57.2019 49.05C57.3298 48.5539 57.4952 48.0141 59.1706 48.4821C60.1316 48.7598 59.9756 49.6084 59.8508 50.0078Z" fill="#FAB27B"/>
<path d="M56.9774 49.1369C55.224 47.7829 51.5174 44.1137 55.0742 40.9095C58.0351 38.2419 60.7557 39.8019 61.6824 41.6053C62.7213 43.6239 65.0769 49.0184 59.8509 50.0074C58.89 50.1884 57.8884 49.8389 56.9774 49.1369Z" fill="#FAB27B"/>
<path d="M54.4719 52.276C54.4719 52.276 56.9305 50.117 61.6011 52.9655L61.5356 53.6332L54.5156 52.953L54.4719 52.276Z" fill="#016BD9"/>
<path opacity="0.5" d="M54.4719 52.276C54.4719 52.276 56.9305 50.117 61.6011 52.9655L61.5356 53.6332L54.5156 52.953L54.4719 52.276Z" fill="#F4F7FE"/>
<path opacity="0.1" d="M59.1802 49.3711C59.1802 50.0918 59.4017 50.4662 59.6607 50.6534C59.7088 50.4339 59.7724 50.2181 59.851 50.0076C59.2239 49.733 59.1802 49.3711 59.1802 49.3711Z" fill="black"/>
<path d="M61.0522 52.8813C60.0412 52.6655 59.0196 52.503 57.9915 52.3946C56.1819 52.1824 54.7997 52.0421 53.8013 52.482C52.2101 53.184 52.0073 53.6332 52.0073 53.6332L52.3193 58.7906C52.5675 61.2788 52.6124 63.7831 52.4535 66.2786C52.4535 66.3004 52.3287 71.1926 49.686 73.8197C50.7846 74.7107 52.0853 75.3182 53.4737 75.5887L54.9651 72.0194L55.4362 75.7634C55.4362 75.7634 60.8057 77.3546 65.2361 75.8851C65.2361 75.8851 62.8119 72.0101 63.5919 68.0477C63.9694 66.1413 64.244 65.2397 64.4561 63.7421C64.5785 62.9344 64.5785 62.113 64.4561 61.3053L63.4608 54.5037C63.4608 54.5037 61.7012 53.0405 61.0522 52.8813Z" fill="#016BD9"/>
<path opacity="0.6" d="M61.0522 52.8813C60.0412 52.6655 59.0196 52.503 57.9915 52.3946C56.1819 52.1824 54.7997 52.0421 53.8013 52.482C52.2101 53.184 52.0073 53.6332 52.0073 53.6332L52.3193 58.7906C52.5675 61.2788 52.6124 63.7831 52.4535 66.2786C52.4535 66.3004 52.3287 71.1926 49.686 73.8197C50.7846 74.7107 52.0853 75.3182 53.4737 75.5887L54.9651 72.0194L55.4362 75.7634C55.4362 75.7634 60.8057 77.3546 65.2361 75.8851C65.2361 75.8851 62.8119 72.0101 63.5919 68.0477C63.9694 66.1413 64.244 65.2397 64.4561 63.7421C64.5785 62.9344 64.5785 62.113 64.4561 61.3053L63.4608 54.5037C63.4608 54.5037 61.7012 53.0405 61.0522 52.8813Z" fill="black"/>
<path d="M64.1378 65.6729C64.2657 64.9834 64.378 64.3344 64.4498 63.7572C64.5721 62.9496 64.5721 62.1281 64.4498 61.3205L63.0239 59.7168C63.0239 59.7168 64.3967 61.645 64.1378 65.6729Z" fill="black"/>
<path d="M76.8704 58.3444L77.8563 55.5364C77.8754 55.4798 77.9157 55.4328 77.9686 55.4053L79.513 54.616C79.5549 54.5961 79.6016 54.5888 79.6476 54.5949C79.6935 54.6009 79.7368 54.6202 79.772 54.6503L80.8734 55.6175C80.9169 55.656 80.9443 55.7095 80.95 55.7674C80.9558 55.8252 80.9396 55.8831 80.9046 55.9295L79.7658 57.4271C79.7529 57.4443 79.7424 57.4632 79.7346 57.4833C79.6472 57.7048 79.0606 59.1056 77.8126 59.4551L77.7658 59.4738L77.3478 59.6953C77.2969 59.7263 77.2361 59.7365 77.178 59.7237C77.1198 59.7109 77.0689 59.6761 77.0358 59.6267L76.5022 58.881C76.4821 58.8531 76.4685 58.8211 76.4623 58.7873C76.4561 58.7535 76.4575 58.7187 76.4665 58.6855C76.4755 58.6523 76.4917 58.6216 76.5141 58.5955C76.5365 58.5694 76.5644 58.5486 76.5958 58.5347L76.7362 58.4692C76.7664 58.4595 76.7941 58.4433 76.8173 58.4218C76.8405 58.4002 76.8586 58.3738 76.8704 58.3444Z" fill="#FAB27B"/>
<path d="M61.0239 52.8779C62.8927 53.339 64.5317 54.4605 65.6384 56.0354C67.0272 57.7886 68.5958 59.3917 70.3184 60.8183C70.3184 60.8183 73.9251 60.0508 76.1996 58.0821L77.535 60.0758C77.535 60.0758 72.0562 64.2067 69.8254 63.9914C67.9222 63.8073 64.4528 61.33 64.4528 61.33L63.0238 59.7263L61.0239 52.8779Z" fill="#016BD9"/>
<path opacity="0.6" d="M61.0239 52.8779C62.8927 53.339 64.5317 54.4605 65.6384 56.0354C67.0272 57.7886 68.5958 59.3917 70.3184 60.8183C70.3184 60.8183 73.9251 60.0508 76.1996 58.0821L77.535 60.0758C77.535 60.0758 72.0562 64.2067 69.8254 63.9914C67.9222 63.8073 64.4528 61.33 64.4528 61.33L63.0238 59.7263L61.0239 52.8779Z" fill="black"/>
<path d="M76.3244 57.8325L78.3275 60.3192L76.9859 60.6748L75.3884 58.338L76.3244 57.8325Z" fill="#016BD9"/>
<path opacity="0.5" d="M76.3244 57.8325L78.3275 60.3192L76.9859 60.6748L75.3884 58.338L76.3244 57.8325Z" fill="#F4F7FE"/>
<path d="M62.9834 45.9175V46.8847L63.6355 46.7942L62.9834 45.9175Z" fill="#E07F50"/>
<path d="M57.8696 51.7079C56.3689 51.8608 51.9416 51.9481 52.4689 48.7002C52.9962 45.4523 52.2786 43.8424 53.6545 41.5554C55.0304 39.2684 57.8977 38.6008 60.4779 39.2778C62.6276 39.8394 62.8023 41.3432 62.2189 42.248C61.6355 43.1528 61.3734 43.3213 61.4763 43.964C61.5793 44.6068 61.1893 44.9656 61.0208 45.2682C60.8352 45.4863 60.5998 45.6565 60.3344 45.7643C60.2185 46.3956 60.2581 47.0456 60.4499 47.6581C60.7619 48.8468 61.3983 51.3428 57.8696 51.7079Z" fill="black"/>
<path d="M59.8664 39.3121C60.5877 39.3868 61.2901 39.5886 61.9412 39.908C62.4497 40.1701 62.9583 40.5601 63.0737 41.156C63.2391 42.014 62.5745 42.8283 62.0473 43.4211C61.963 43.5178 62.1253 43.6301 62.2064 43.5365C63.1424 42.4882 63.8662 41.0156 62.4934 40.0109C61.7131 39.4984 60.8159 39.1914 59.8851 39.1186C59.8594 39.1161 59.8339 39.1239 59.814 39.1403C59.7941 39.1567 59.7815 39.1803 59.779 39.206C59.7765 39.2316 59.7843 39.2572 59.8007 39.2771C59.8171 39.297 59.8407 39.3096 59.8664 39.3121Z" fill="black"/>
<path d="M53.6638 41.5368C52.6748 42.8191 52.628 44.4946 52.4158 46.0234C52.2754 47.1029 51.0586 49.2089 51.9197 50.226C52.0009 50.3227 52.1569 50.201 52.0757 50.1043C51.4861 49.4086 52.0757 48.3852 52.2754 47.6645C52.4642 46.9559 52.5926 46.2326 52.6592 45.5023C52.7933 44.195 52.9712 42.7349 53.8105 41.6554C53.8885 41.5555 53.7293 41.437 53.6513 41.5368H53.6638Z" fill="black"/>
<path d="M62.3126 44.0762C62.2939 44.1168 62.3282 44.045 62.3345 44.0356C62.3537 43.9982 62.3778 43.9636 62.4062 43.9327C62.4491 43.8809 62.5065 43.8432 62.571 43.8243C62.6355 43.8054 62.7041 43.8062 62.7682 43.8266C62.8867 43.8547 62.9366 43.6737 62.8181 43.6456C62.6768 43.6109 62.5275 43.6307 62.4002 43.7013C62.2729 43.7719 62.177 43.888 62.1317 44.0263C62.0849 44.1355 62.2658 44.1854 62.3126 44.0762Z" fill="black"/>
<path d="M61.5451 45.4989C61.7448 46.098 61.5451 46.7033 61.1177 46.8499C60.6903 46.9965 60.1817 46.6284 59.9633 46.0262C59.7449 45.4241 59.9633 44.8219 60.3907 44.6753C60.8182 44.5286 61.3423 44.8968 61.5451 45.4989Z" fill="#FAB27B"/>
<path d="M63.024 43.9922C62.9959 44.2168 62.7775 44.2636 62.6652 44.2823C62.5529 44.3011 62.5435 44.429 62.5654 44.5943C62.5872 44.7597 62.6652 44.8783 62.7401 44.8658C62.815 44.8533 62.8618 44.7191 62.843 44.5538C62.8352 44.5089 62.8226 44.465 62.8056 44.4227C63.1582 44.2106 63.024 43.9922 63.024 43.9922Z" fill="black"/>
</svg>
