<svg width="289" height="289" viewBox="0 0 289 289" fill="none" xmlns="http://www.w3.org/2000/svg">
<path d="M187.37 52.02L187.694 52.598C188.059 53.2522 188.602 53.7893 189.261 54.1471L189.839 54.465L189.261 54.7829C188.601 55.1412 188.057 55.6806 187.694 56.3377L187.37 56.9157L187.053 56.3377C186.689 55.6806 186.146 55.1412 185.486 54.7829L184.908 54.465L185.486 54.1471C186.144 53.7893 186.688 53.2522 187.053 52.598L187.37 52.02Z" fill="#EBEBEB"/>
<path d="M65.7997 25.877L66.1234 26.455C66.483 27.1112 67.025 27.6493 67.684 28.004L68.262 28.3277L67.684 28.6456C67.0262 29.0019 66.4846 29.5395 66.1234 30.1946L65.7997 30.7726L65.476 30.1946C65.1148 29.5395 64.5732 29.0019 63.9154 28.6456L63.3374 28.3277L63.9154 28.004C64.5743 27.6493 65.1164 27.1112 65.476 26.455L65.7997 25.877Z" fill="#EBEBEB"/>
<path d="M256.811 89.4106L257.135 89.9886C257.496 90.6453 258.04 91.1833 258.701 91.5377L259.279 91.8556L258.701 92.1735C258.04 92.5278 257.496 93.0658 257.135 93.7225L256.811 94.3005L256.487 93.7225C256.126 93.0674 255.584 92.5298 254.927 92.1735L254.349 91.8556L254.927 91.5377C255.584 91.1814 256.126 90.6437 256.487 89.9886L256.811 89.4106Z" fill="#EBEBEB"/>
<path d="M19.2129 129.651L19.5308 130.229C19.895 130.886 20.4383 131.425 21.0972 131.784L21.6752 132.102L21.0972 132.42C20.4391 132.778 19.8959 133.315 19.5308 133.969L19.2129 134.547L18.8892 133.969C18.5322 133.315 17.9945 132.777 17.3402 132.42L16.7622 132.102L17.3402 131.784C18.0009 131.43 18.5449 130.892 18.9066 130.235L19.2129 129.651Z" fill="#EBEBEB"/>
<path d="M129.767 24.0967L130.345 25.1082C130.963 26.236 131.892 27.1628 133.021 27.7785L134.026 28.3565L133.021 28.9056C131.891 29.5235 130.962 30.4522 130.345 31.5818L129.767 32.5875L129.218 31.5818C128.601 30.4501 127.672 29.5193 126.541 28.8999L125.536 28.3219L126.541 27.7439C127.67 27.1281 128.599 26.2013 129.218 25.0735L129.767 24.0967Z" fill="#EBEBEB"/>
<path d="M54.6963 73.562L55.2743 74.5677C55.894 75.6959 56.8223 76.6242 57.9504 77.2439L58.9562 77.8219L57.9504 78.371C56.8223 78.9907 55.894 79.9189 55.2743 81.0471L54.6963 82.0528L54.1472 81.0471C53.5293 79.9176 52.6006 78.9888 51.4711 78.371L50.4653 77.8219L51.4711 77.2439C52.6014 76.6245 53.5302 75.6936 54.1472 74.562L54.6963 73.562Z" fill="#EBEBEB"/>
<path d="M241.604 40.1016L241.766 40.3906C241.943 40.7185 242.212 40.9876 242.54 41.1651L242.829 41.3269L242.54 41.4888C242.212 41.6662 241.943 41.9353 241.766 42.2633L241.604 42.5523L241.448 42.2633C241.268 41.9367 241 41.6681 240.673 41.4888L240.378 41.3269L240.673 41.1651C241 40.9858 241.268 40.7171 241.448 40.3906L241.604 40.1016Z" fill="#EBEBEB"/>
<path d="M23.8308 86.4341L23.9927 86.7289C24.1701 87.0568 24.4392 87.3259 24.7672 87.5034L25.0562 87.6652L24.7672 87.8213C24.4406 88.0006 24.172 88.2693 23.9927 88.5958L23.8308 88.8906L23.6748 88.5958C23.494 88.2704 23.2257 88.0021 22.9002 87.8213L22.6055 87.6652L22.9002 87.5034C23.2353 87.3276 23.5124 87.0586 23.6979 86.7289L23.8308 86.4341Z" fill="#EBEBEB"/>
<path d="M58.3779 226.772C62.6898 230.876 67.0826 236.442 73.0129 235.882C79.5385 235.246 84.3879 227.154 90.7459 228.634C94.2139 229.437 96.3121 232.784 99.0576 234.992C104.577 239.454 112.93 239.13 119.091 235.656C125.253 232.183 129.611 226.125 132.778 219.779C142.188 201.005 142.795 179.18 142.587 158.193L144.5 87.7114L146.413 159.961C146.205 180.954 146.823 202.768 156.199 221.553C159.366 227.911 163.713 233.963 169.886 237.437C176.059 240.91 184.399 241.228 189.919 236.772C192.665 234.552 194.792 231.206 198.231 230.414C204.589 228.928 209.461 237.049 215.981 237.662C221.911 238.24 226.304 232.657 230.616 228.553C236.726 222.876 244.525 219.352 252.823 218.519C257.114 206.158 259.298 193.165 259.285 180.082C259.285 115.461 206.901 63.0713 142.28 63.0713C77.66 63.0713 25.2701 115.455 25.2701 180.076C25.2574 192.443 27.2083 204.734 31.0501 216.49C41.0379 216.305 51.1356 219.883 58.3779 226.772Z" fill="#0461C2"/>
<path d="M205.277 151.436H277.099C277.099 151.436 270.741 139.876 252.245 141.564C234.587 143.171 233.691 135.876 224.715 134.98C215.739 134.084 208.271 140.986 205.277 151.436Z" fill="white"/>
<path d="M11.5601 166.279H57.4475C57.4475 166.279 53.4015 158.886 41.5698 159.961C30.2815 160.99 29.7093 156.331 23.9697 155.753C18.2302 155.175 13.4443 159.58 11.5601 166.279Z" fill="white"/>
<path d="M120.744 234.668C121.039 234.477 121.322 234.281 121.605 234.09L121.987 233.801C122.264 233.587 122.565 233.373 122.808 233.154L123.137 232.882C123.443 232.616 123.75 232.35 124.05 232.073L124.224 231.911C125.357 230.83 126.413 229.671 127.385 228.443C127.715 228.033 128.033 227.616 128.345 227.189C124.466 226.917 120.478 227.431 116.785 226.299C109.196 223.987 104.999 215.582 97.7686 212.317C88.2432 208.011 75.9145 213.629 67.1346 207.941C60.5454 203.676 58.8924 194.913 54.6672 188.289C48.4074 178.463 36.518 173.261 25.3395 176.487C25.2971 177.689 25.2759 178.893 25.2759 180.099C25.2769 191.971 27.0835 203.774 30.6339 215.103C30.9056 215.571 31.1715 216.039 31.4605 216.513C31.5645 216.513 31.6743 216.513 31.7784 216.513H33.2407H33.6106C34.1077 216.513 34.599 216.559 35.0903 216.6C35.2117 216.6 35.3331 216.6 35.4487 216.634C35.9458 216.675 36.4428 216.727 36.9341 216.79L37.2925 216.837C37.7838 216.906 38.2751 216.975 38.7664 217.062L39.1305 217.131C39.6161 217.224 40.1016 217.316 40.5813 217.42L40.9686 217.513C41.4368 217.623 41.9107 217.733 42.3789 217.86L42.7951 217.981C43.2459 218.108 43.7025 218.241 44.1534 218.386L44.6042 218.542C45.0377 218.686 45.4712 218.831 45.8989 218.993L46.3902 219.189C46.8006 219.345 47.211 219.507 47.6098 219.68C47.7948 219.756 47.9739 219.842 48.1531 219.923C48.5346 220.097 48.9161 220.264 49.3091 220.449C49.5114 220.542 49.7079 220.652 49.8871 220.756C50.2397 220.929 50.5865 221.108 50.9333 221.293C51.1529 221.414 51.361 221.547 51.5807 221.669C51.8986 221.854 52.2165 222.033 52.5286 222.247L53.2395 222.703L54.0834 223.253C54.3493 223.437 54.6036 223.634 54.8695 223.831C55.1354 224.027 55.3492 224.172 55.5804 224.351C55.8116 224.53 56.1584 224.836 56.4879 225.079C56.6613 225.229 56.8462 225.368 57.0254 225.518C57.4936 225.917 57.956 226.333 58.4068 226.761C62.7187 230.865 67.1115 236.431 73.0418 235.87C79.5385 235.246 84.3879 227.154 90.7459 228.634C94.2139 229.437 96.3121 232.784 99.0576 234.992C104.577 239.454 112.93 239.13 119.091 235.656C119.525 235.419 119.941 235.159 120.357 234.893L120.744 234.668Z" fill="white"/>
<path d="M232.125 227.2L232.928 226.535C233.073 226.42 233.229 226.31 233.379 226.194C233.633 225.998 233.888 225.801 234.148 225.616L234.627 225.275L235.402 224.744L235.893 224.426C236.159 224.258 236.425 224.085 236.697 223.923C236.858 223.819 237.026 223.726 237.188 223.634L238.02 223.154L238.517 222.888L239.384 222.437L239.87 222.206C240.17 222.062 240.448 221.917 240.772 221.779L241.251 221.57L242.188 221.177L242.656 220.992L243.627 220.628L244.083 220.472L245.089 220.137L245.534 220.004C245.881 219.9 246.222 219.796 246.569 219.704L247.008 219.588L248.066 219.328L248.499 219.23L249.58 219.01L250.002 218.929C250.366 218.865 250.73 218.802 251.1 218.75L251.517 218.686L252.129 218.6C252.586 217.964 253.019 217.334 253.43 216.698C257.32 204.882 259.296 192.521 259.285 180.082C259.285 177.716 259.214 175.369 259.071 173.042C247.783 170.209 237.165 175.932 231.258 185.983C227.269 192.746 225.923 201.56 219.49 206.063C210.918 212.051 198.404 206.866 189.029 211.507C181.925 215.016 178.024 223.565 170.51 226.148C167.042 227.345 163.227 227.061 159.528 227.385C159.834 227.836 160.146 228.287 160.47 228.726C160.551 228.847 160.638 228.963 160.724 229.079C160.99 229.431 161.256 229.784 161.528 230.125L161.765 230.42C162.106 230.847 162.464 231.264 162.828 231.668L163.019 231.882C163.325 232.217 163.637 232.547 163.955 232.865L164.285 233.194C164.608 233.518 164.944 233.83 165.285 234.136L165.487 234.321C165.892 234.674 166.308 235.015 166.73 235.344L167.065 235.593C167.394 235.847 167.735 236.09 168.082 236.327L168.469 236.587C168.92 236.882 169.383 237.165 169.862 237.437C176.047 240.905 184.376 241.228 189.896 236.772C192.641 234.552 194.769 231.206 198.208 230.414C204.566 228.928 209.438 237.049 215.958 237.662C221.888 238.24 226.281 232.657 230.593 228.553C230.963 228.2 231.344 227.853 231.749 227.518C231.876 227.408 232.003 227.31 232.125 227.2Z" fill="white"/>
<path d="M257.967 265.88C257.967 265.961 206.704 266.03 143.483 266.03C80.2611 266.03 28.981 265.961 28.981 265.88C28.981 265.799 80.2322 265.729 143.483 265.729C206.733 265.729 257.967 265.805 257.967 265.88Z" fill="white"/>
<path d="M243.027 72.8252C243.224 67.5362 239.096 63.0891 233.807 62.8924C228.518 62.6957 224.07 66.8238 223.874 72.1128C223.677 77.4019 227.805 81.8489 233.094 82.0456C238.383 82.2423 242.83 78.1142 243.027 72.8252Z" fill="white"/>
<path d="M236.553 68.7821C236.558 68.4719 236.656 68.1704 236.834 67.9159C237.011 67.6613 237.26 67.4652 237.549 67.3524C237.838 67.2395 238.154 67.2151 238.457 67.2821C238.76 67.3491 239.036 67.5046 239.251 67.7288C239.465 67.953 239.608 68.2358 239.662 68.5414C239.715 68.8471 239.677 69.1617 239.551 69.4454C239.426 69.7291 239.219 69.9692 238.956 70.1351C238.694 70.301 238.389 70.3853 238.079 70.3774C237.874 70.3729 237.672 70.328 237.484 70.2454C237.296 70.1628 237.127 70.044 236.985 69.8959C236.843 69.7477 236.732 69.5731 236.658 69.382C236.584 69.1909 236.548 68.987 236.553 68.7821Z" fill="#263238"/>
<path d="M239.679 72.4405C239.683 72.2597 239.74 72.084 239.843 71.9357C239.947 71.7874 240.092 71.6731 240.261 71.6074C240.429 71.5416 240.613 71.5274 240.79 71.5665C240.966 71.6056 241.127 71.6962 241.252 71.8269C241.377 71.9576 241.461 72.1225 241.492 72.3006C241.523 72.4787 241.501 72.6621 241.428 72.8275C241.354 72.9929 241.234 73.1329 241.081 73.2296C240.928 73.3264 240.75 73.3757 240.569 73.3711C240.328 73.3651 240.099 73.2638 239.932 73.0894C239.766 72.9151 239.675 72.6818 239.679 72.4405Z" fill="#263238"/>
<path d="M238.46 75.2324C238.549 75.2324 238.634 75.2677 238.697 75.3306C238.76 75.3935 238.795 75.4788 238.795 75.5677C238.795 75.6566 238.76 75.7418 238.697 75.8047C238.634 75.8676 238.549 75.9029 238.46 75.9029C238.416 75.9022 238.373 75.8927 238.333 75.8751C238.293 75.8575 238.257 75.832 238.227 75.8003C238.197 75.7685 238.173 75.7311 238.158 75.6902C238.142 75.6492 238.135 75.6056 238.136 75.5619C238.138 75.4759 238.172 75.3938 238.232 75.3325C238.293 75.2712 238.374 75.2354 238.46 75.2324Z" fill="#263238"/>
<path d="M214.473 115.293L214.802 115.871C215.17 116.545 215.724 117.099 216.398 117.467L216.976 117.796L216.398 118.126C215.722 118.491 215.168 119.046 214.802 119.721L214.473 120.299L214.143 119.721C213.779 119.045 213.225 118.49 212.548 118.126L211.97 117.796L212.548 117.467C213.223 117.101 213.778 116.547 214.143 115.871L214.473 115.293Z" fill="white"/>
<path d="M85.3589 65.1235L85.9369 66.1639C86.5743 67.3255 87.5311 68.2803 88.694 68.9152L89.7286 69.4932L88.694 70.0712C87.5303 70.7077 86.5734 71.6645 85.9369 72.8283L85.3589 73.8629L84.7809 72.8283C84.146 71.6653 83.1913 70.7086 82.0297 70.0712L80.9893 69.4932L82.0297 68.9152C83.1905 68.2794 84.1451 67.3247 84.7809 66.1639L85.3589 65.1235Z" fill="white"/>
<path d="M48.4016 30.9575L48.6155 31.339C48.8472 31.7736 49.2008 32.1312 49.6327 32.3678L50.0142 32.5759L49.6327 32.784C49.2024 33.0176 48.849 33.3709 48.6155 33.8013L48.4016 34.1828L48.1935 33.8013C47.9599 33.3709 47.6066 33.0176 47.1762 32.784L46.8179 32.5644L47.1994 32.3563C47.6297 32.1227 47.983 31.7693 48.2166 31.339L48.4016 30.9575Z" fill="white"/>
<path d="M106.427 193.526L106.531 193.717C106.65 193.93 106.826 194.107 107.04 194.225L107.231 194.329L107.04 194.433C106.827 194.553 106.652 194.729 106.531 194.942L106.427 195.133L106.323 194.942C106.205 194.728 106.029 194.552 105.815 194.433L105.624 194.329L105.815 194.225C106.03 194.108 106.207 193.932 106.323 193.717L106.427 193.526Z" fill="white"/>
<path d="M85.4631 123.831L85.5671 124.021C85.6857 124.235 85.862 124.411 86.0758 124.53L86.2665 124.634L86.0758 124.738C85.862 124.857 85.6857 125.033 85.5671 125.247L85.4631 125.437L85.359 125.247C85.2423 125.031 85.0656 124.855 84.8504 124.738L84.6597 124.634L84.8504 124.53C85.0656 124.413 85.2423 124.236 85.359 124.021L85.4631 123.831Z" fill="white"/>
<path d="M254.69 104.335L254.794 104.526C254.911 104.741 255.088 104.918 255.303 105.034L255.494 105.138L255.303 105.242C255.088 105.359 254.911 105.536 254.794 105.751L254.69 105.942L254.586 105.751C254.469 105.536 254.293 105.359 254.077 105.242L253.887 105.138L254.077 105.034C254.293 104.918 254.469 104.741 254.586 104.526L254.69 104.335Z" fill="white"/>
<path d="M34.4893 103.462L34.7032 103.843C34.9368 104.274 35.2901 104.627 35.7205 104.861L36.102 105.069L35.7205 105.277C35.2791 105.511 34.9171 105.871 34.6801 106.311L34.4662 106.693L34.2581 106.311C34.0246 105.881 33.6712 105.528 33.2409 105.294L32.8594 105.086L33.2409 104.878C33.6712 104.644 34.0246 104.291 34.2581 103.861L34.4893 103.462Z" fill="white"/>
<path d="M193.243 188.428L193.456 188.81C193.69 189.238 194.041 189.591 194.468 189.827L194.855 190.035L194.468 190.243C194.041 190.479 193.69 190.832 193.456 191.26L193.243 191.642L193.035 191.26C192.799 190.831 192.446 190.479 192.017 190.243L191.636 190.035L192.017 189.827C192.446 189.592 192.799 189.239 193.035 188.81L193.243 188.428Z" fill="white"/>
<path d="M205.502 27.0679L206.08 28.1025C206.715 29.2654 207.67 30.2222 208.832 30.8595L209.866 31.4375L208.832 32.0155C207.671 32.6514 206.716 33.606 206.08 34.7668L205.502 35.8014L204.924 34.7668C204.287 33.6052 203.33 32.6505 202.167 32.0155L201.133 31.4375L202.167 30.8595C203.331 30.2231 204.288 29.2662 204.924 28.1025L205.502 27.0679Z" fill="white"/>
<path d="M67.1635 152.436C64.8976 151.824 62.8492 150.587 61.2516 148.868C59.6541 147.148 58.5717 145.014 58.1277 142.709C57.6837 140.404 57.896 138.021 58.7404 135.831C59.5848 133.641 61.0273 131.732 62.9037 130.322C61.2706 131.013 59.8028 132.043 58.5974 133.343C57.3921 134.644 56.4766 136.185 55.9116 137.866C55.3466 139.547 55.1449 141.329 55.3199 143.093C55.495 144.858 56.0427 146.565 56.9269 148.102C57.811 149.64 59.0115 150.971 60.4489 152.01C61.8862 153.048 63.5277 153.77 65.2648 154.126C67.0018 154.483 68.7947 154.467 70.525 154.079C72.2553 153.691 73.8834 152.94 75.3018 151.875C72.7284 152.969 69.8625 153.166 67.1635 152.436Z" fill="white"/>
<path d="M233.298 247.494C234.154 248.713 235.812 248.309 236.581 247.563C237.283 246.75 237.761 245.768 237.968 244.714C238.645 242.361 239.327 239.899 238.824 237.5C238.701 236.776 238.383 236.098 237.905 235.541C237.661 235.267 237.35 235.062 237.002 234.946C236.654 234.831 236.281 234.808 235.922 234.882C235.084 235.101 234.564 235.922 234.188 236.703C233.082 239.005 232.502 241.524 232.489 244.078C232.412 245.272 232.694 246.461 233.298 247.494Z" fill="#FFA500"/>
<g opacity="0.2">
<path d="M233.298 247.494C234.154 248.713 235.812 248.309 236.581 247.563C237.283 246.75 237.761 245.768 237.968 244.714C238.645 242.361 239.327 239.899 238.824 237.5C238.701 236.776 238.383 236.098 237.905 235.541C237.661 235.267 237.35 235.062 237.002 234.946C236.654 234.831 236.281 234.808 235.922 234.882C235.084 235.101 234.564 235.922 234.188 236.703C233.082 239.005 232.502 241.524 232.489 244.078C232.412 245.272 232.694 246.461 233.298 247.494Z" fill="#E8E8E8"/>
</g>
<path d="M236.495 253.667C237.922 252.986 239.532 252.784 241.084 253.089C241.934 253.16 242.735 253.516 243.355 254.101C243.933 254.725 244.026 255.835 243.355 256.361C242.935 256.647 242.428 256.776 241.922 256.725C240.708 256.725 239.367 256.5 238.396 257.228C237.818 257.644 237.471 258.338 236.812 258.54C236.48 258.62 236.13 258.588 235.817 258.45C235.504 258.313 235.245 258.076 235.078 257.777C234.765 257.169 234.696 256.463 234.888 255.806C234.973 255.35 235.163 254.92 235.441 254.549C235.72 254.178 236.08 253.876 236.495 253.667Z" fill="#FFA500"/>
<path d="M230.952 249.239C231.391 248.667 231.684 247.996 231.805 247.285C231.926 246.574 231.871 245.844 231.645 245.159C231.174 243.79 230.336 242.577 229.223 241.65C227.959 240.527 226.489 239.659 224.894 239.095C224.276 238.847 223.612 238.734 222.946 238.766C222.614 238.786 222.291 238.886 222.006 239.058C221.721 239.23 221.483 239.469 221.311 239.754C220.86 240.621 221.311 241.679 221.767 242.535C222.6 244.052 223.551 245.501 224.611 246.87C225.461 247.968 226.437 249.054 227.738 249.546C229.038 250.037 230.385 249.985 231.079 249.083" fill="#FFA500"/>
<path d="M233.241 265.88C233.287 265.691 233.312 265.497 233.316 265.302C233.356 264.897 233.403 264.395 233.466 263.793C233.54 263.048 233.652 262.308 233.801 261.574C234.003 260.682 234.273 259.806 234.611 258.956C234.941 258.106 235.39 257.308 235.946 256.586C236.398 255.997 236.977 255.517 237.639 255.181C238.087 254.96 238.567 254.809 239.061 254.736C239.246 254.727 239.43 254.702 239.61 254.661C239.418 254.636 239.224 254.636 239.032 254.661C238.518 254.701 238.015 254.832 237.547 255.048C236.852 255.377 236.243 255.861 235.767 256.464C235.188 257.197 234.72 258.011 234.379 258.88C234.038 259.742 233.771 260.632 233.582 261.539C233.437 262.282 233.338 263.033 233.287 263.788C233.235 264.429 233.218 264.944 233.212 265.308C233.197 265.499 233.207 265.691 233.241 265.88Z" fill="white"/>
<path d="M233.344 264.724C233.353 264.638 233.353 264.551 233.344 264.464V263.73C233.344 263.094 233.344 262.169 233.379 261.031C233.437 258.748 233.627 255.603 234.009 252.141C234.39 248.679 234.899 245.569 235.362 243.332C235.466 242.754 235.575 242.269 235.679 241.83C235.783 241.39 235.864 241.003 235.945 240.674L236.119 239.957C236.142 239.874 236.157 239.789 236.165 239.703C236.122 239.779 236.091 239.86 236.072 239.945L235.859 240.651C235.766 240.957 235.668 241.333 235.558 241.778C235.448 242.223 235.321 242.72 235.2 243.275C234.57 246.187 234.098 249.132 233.784 252.095C233.402 255.563 233.206 258.719 233.206 261.002C233.206 262.158 233.206 263.071 233.246 263.707C233.246 264.008 233.275 264.25 233.286 264.447C233.292 264.542 233.312 264.635 233.344 264.724Z" fill="white"/>
<path d="M233.356 258.632C233.379 258.376 233.379 258.119 233.356 257.863C233.328 257.372 233.258 256.661 233.119 255.782C232.949 254.761 232.724 253.75 232.443 252.754C232.104 251.529 231.68 250.329 231.172 249.164C230.291 247.028 229.03 245.07 227.449 243.384C227.177 243.096 226.885 242.825 226.576 242.575C226.444 242.46 226.322 242.344 226.201 242.257L225.86 242.02C225.658 241.863 225.441 241.725 225.212 241.61C225.961 242.191 226.67 242.823 227.334 243.5C228.864 245.206 230.092 247.16 230.963 249.28C231.465 250.436 231.892 251.623 232.241 252.835C232.57 253.95 232.79 254.973 232.958 255.834C233.125 256.696 233.212 257.407 233.264 257.898C233.28 258.144 233.311 258.389 233.356 258.632Z" fill="white"/>
<path d="M56.6847 204.092C56.7936 204.06 56.9065 204.045 57.0199 204.046C57.356 204.039 57.6888 204.112 57.991 204.26C58.4854 204.497 58.917 204.848 59.251 205.283C59.7 205.884 60.0584 206.548 60.3145 207.254C60.9214 208.849 61.2104 210.924 61.5457 213.34C61.9399 216.104 62.1926 218.885 62.3028 221.675C62.4416 222.143 62.7537 222.698 63.2681 222.738C63.5307 222.728 63.785 222.644 64.0022 222.496C64.2449 222.357 64.4819 222.201 64.7189 222.039C65.2008 221.696 65.7048 221.385 66.2275 221.108C66.7737 220.779 67.426 220.673 68.0482 220.814C68.3534 220.935 68.6294 221.12 68.8576 221.356C69.0858 221.592 69.2611 221.874 69.3718 222.183C69.5736 222.817 69.6094 223.492 69.4758 224.143C69.2562 225.461 68.5973 226.663 68.0886 227.923C67.58 229.183 66.9904 230.478 66.4298 231.796L65.5685 233.801C65.424 234.136 65.2795 234.477 65.1293 234.818C65.0512 234.976 64.9948 235.143 64.9616 235.316C64.9272 235.476 64.9413 235.643 65.0021 235.795C65.1119 236.079 65.5107 236.021 65.8344 235.859L66.8748 235.396C67.5825 235.072 68.3081 234.788 69.0481 234.547C69.8076 234.286 70.6035 234.148 71.4063 234.136C71.8259 234.139 72.2393 234.237 72.6144 234.425C73.0018 234.623 73.3099 234.947 73.4871 235.344C73.7858 236.14 73.8262 237.01 73.6027 237.83C73.4206 238.645 73.1592 239.441 72.8224 240.205C72.1337 241.762 71.3199 243.26 70.3891 244.685C70.1432 245.024 69.9303 245.386 69.7533 245.766C69.7175 245.849 69.699 245.938 69.699 246.029C69.699 246.119 69.7175 246.209 69.7533 246.292C69.7708 246.332 69.7942 246.369 69.8226 246.402C69.8226 246.43 69.9035 246.5 69.8978 246.477C69.9655 246.498 70.0381 246.498 70.1058 246.477C70.8965 246.128 71.6597 245.721 72.3889 245.257C73.1546 244.798 73.9615 244.411 74.7992 244.101C75.2327 243.938 75.6891 243.844 76.1517 243.824C76.3966 243.804 76.6427 243.838 76.8732 243.923C77.1037 244.008 77.3131 244.141 77.4869 244.315C77.8151 244.682 77.9962 245.158 77.9955 245.65C78.0076 246.118 77.961 246.586 77.8568 247.043C77.6459 247.949 77.3277 248.826 76.9089 249.656C76.0668 251.331 75.0287 252.901 73.8166 254.332C72.603 255.798 71.2836 257.174 69.8689 258.447C69.1531 259.076 68.4045 259.666 67.6262 260.216L65.3142 262.008L65.2449 262.06L65.1697 262.031L62.4589 260.985C61.5516 260.664 60.6621 260.296 59.7943 259.881C58.0729 259.067 56.4135 258.128 54.8293 257.071C53.2567 256.048 51.8112 254.841 50.5232 253.476C49.8797 252.804 49.3224 252.055 48.8643 251.245C48.6299 250.839 48.4492 250.404 48.3268 249.951C48.1845 249.48 48.2216 248.973 48.4308 248.529C48.5505 248.311 48.7156 248.121 48.9151 247.972C49.1146 247.824 49.3437 247.72 49.5868 247.667C50.0367 247.558 50.5004 247.517 50.9625 247.546C51.8567 247.61 52.7429 247.757 53.6097 247.985C54.4416 248.218 55.2898 248.388 56.1471 248.494C56.2164 248.5 56.286 248.488 56.3494 248.459C56.3494 248.459 56.3899 248.39 56.4015 248.361C56.4184 248.32 56.43 248.278 56.4361 248.234C56.4461 248.145 56.4379 248.055 56.412 247.97C56.3862 247.884 56.3433 247.805 56.2859 247.737C56.0084 247.42 55.6985 247.133 55.3611 246.881C54.0637 245.78 52.8557 244.578 51.7486 243.286C51.2049 242.651 50.7248 241.963 50.3151 241.234C49.8739 240.509 49.6717 239.664 49.7371 238.818C49.7884 238.377 49.993 237.968 50.3151 237.662C50.6248 237.378 50.9941 237.167 51.396 237.044C52.1679 236.824 52.9697 236.729 53.7716 236.761C54.5451 236.779 55.317 236.84 56.0836 236.946L57.2396 237.096C57.5921 237.154 57.991 237.096 58.0141 236.789C58.0235 236.627 57.9896 236.466 57.9158 236.321C57.8301 236.166 57.7252 236.023 57.6037 235.894C57.3687 235.605 57.1317 235.321 56.8928 235.044L55.494 233.368L52.7947 230.137C51.9393 229.079 50.9625 228.114 50.3787 226.911C50.0623 226.328 49.903 225.673 49.9163 225.01C49.9331 224.682 50.0196 224.361 50.1701 224.069C50.3206 223.777 50.5316 223.52 50.7891 223.316C51.3436 223.019 51.9907 222.944 52.5982 223.108C53.1859 223.221 53.7652 223.374 54.3322 223.565C54.6039 223.652 54.8755 223.732 55.1472 223.796C55.4 223.871 55.669 223.871 55.9217 223.796C56.4015 223.617 56.5402 222.993 56.5402 222.501C55.8457 219.803 55.2901 217.072 54.8755 214.317C54.4737 212.284 54.2801 210.216 54.2975 208.144C54.3274 207.396 54.4717 206.657 54.7253 205.953C54.9077 205.438 55.2064 204.971 55.598 204.589C55.84 204.357 56.1329 204.185 56.4535 204.086C56.5623 204.054 56.6751 204.036 56.7887 204.034C56.3513 204.098 55.946 204.3 55.6327 204.612C55.2539 204.993 54.9673 205.456 54.7946 205.965C54.5542 206.665 54.4198 207.398 54.3958 208.138C54.3953 210.202 54.6025 212.26 55.0143 214.282C55.4287 217.058 55.9843 219.811 56.6789 222.53C56.6817 222.814 56.6348 223.095 56.5402 223.363C56.4948 223.505 56.4198 223.636 56.3202 223.748C56.2206 223.859 56.0986 223.949 55.9622 224.01C55.6738 224.097 55.3662 224.097 55.0778 224.01C54.7946 223.94 54.4998 223.86 54.2455 223.773C53.6922 223.591 53.1286 223.443 52.5578 223.328C51.9921 223.185 51.3933 223.261 50.8816 223.542C50.6515 223.728 50.4632 223.961 50.3288 224.225C50.1944 224.489 50.1169 224.778 50.1013 225.073C50.0933 225.701 50.2465 226.32 50.5463 226.871C51.1243 228.027 52.078 228.975 52.9392 230.038L55.6501 233.269L57.0546 234.94L57.7655 235.784C57.9163 235.922 58.0359 236.091 58.1166 236.28C58.1973 236.468 58.2372 236.671 58.2337 236.876C58.2204 236.994 58.1711 237.105 58.0925 237.194C58.0139 237.283 57.9098 237.345 57.7944 237.373C57.5925 237.416 57.3837 237.416 57.1818 237.373L56.0258 237.229C55.2588 237.128 54.4871 237.068 53.7138 237.05C52.9332 237.018 52.1526 237.111 51.4018 237.327C51.0338 237.412 50.6987 237.603 50.4378 237.876C50.177 238.149 50.0017 238.493 49.9336 238.864C49.8865 239.654 50.0887 240.439 50.5116 241.107C50.9145 241.822 51.3869 242.496 51.922 243.119C53.0197 244.397 54.218 245.586 55.5056 246.673C55.859 246.938 56.1826 247.24 56.4708 247.575C56.5515 247.673 56.6114 247.787 56.6472 247.909C56.6829 248.031 56.6937 248.159 56.6789 248.286C56.6677 248.349 56.6503 248.411 56.6269 248.471C56.6053 248.54 56.5677 248.604 56.5171 248.656C56.462 248.704 56.3976 248.74 56.328 248.761C56.2584 248.783 56.185 248.791 56.1125 248.783C55.2289 248.684 54.355 248.512 53.4999 248.269C52.6514 248.048 51.7847 247.905 50.9105 247.841C50.4775 247.815 50.043 247.854 49.6215 247.956C49.4219 248 49.2337 248.086 49.0693 248.207C48.905 248.329 48.7681 248.483 48.6678 248.662C48.4942 249.047 48.4675 249.483 48.5927 249.887C48.7065 250.314 48.8756 250.724 49.0955 251.107C49.5445 251.894 50.088 252.624 50.7139 253.28C51.9876 254.626 53.4155 255.817 54.968 256.829C56.5435 257.873 58.1911 258.804 59.8984 259.615C60.761 260.027 61.6446 260.393 62.5456 260.713L65.2506 261.753H65.1061H65.135L67.4124 259.967C68.1824 259.398 68.9232 258.79 69.6319 258.147C71.0337 256.881 72.3415 255.515 73.5449 254.06C74.7444 252.646 75.7709 251.094 76.6026 249.436C77.0125 248.627 77.3231 247.771 77.5274 246.887C77.6287 246.457 77.6734 246.016 77.6603 245.575C77.6641 245.15 77.5119 244.739 77.2326 244.419C77.0863 244.276 76.9111 244.166 76.7186 244.096C76.5262 244.026 76.3211 243.998 76.117 244.014C75.6845 244.038 75.2579 244.126 74.8512 244.275C74.0315 244.587 73.2421 244.974 72.493 245.431C71.7428 245.906 70.9562 246.322 70.1405 246.673C70.0032 246.728 69.8501 246.728 69.7128 246.673C69.6523 246.635 69.5994 246.586 69.5567 246.529C69.5152 246.479 69.482 246.422 69.4585 246.361C69.407 246.246 69.3804 246.121 69.3804 245.994C69.3804 245.868 69.407 245.743 69.4585 245.627C69.6382 245.219 69.8611 244.832 70.1232 244.471C71.0445 243.06 71.8524 241.577 72.5392 240.038C72.8685 239.293 73.1259 238.519 73.308 237.726C73.5192 236.964 73.4868 236.156 73.2155 235.414C73.0444 235.076 72.778 234.796 72.4493 234.608C72.1205 234.42 71.7438 234.332 71.3659 234.356C70.5926 234.365 69.8258 234.498 69.0943 234.749C68.3648 234.987 67.6489 235.265 66.95 235.581L65.9038 236.05C65.7231 236.138 65.5265 236.189 65.3258 236.2C65.2053 236.21 65.0847 236.182 64.981 236.119C64.8773 236.057 64.7957 235.964 64.7478 235.853C64.689 235.662 64.6704 235.46 64.6933 235.261C64.7162 235.062 64.78 234.87 64.8807 234.697C65.0252 234.356 65.1697 234.021 65.32 233.68L66.1812 231.68L67.8516 227.807C68.3718 226.536 69.0076 225.357 69.2331 224.085C69.3645 223.471 69.3347 222.834 69.1464 222.235C69.0494 221.959 68.8967 221.706 68.6979 221.491C68.499 221.277 68.2582 221.105 67.9904 220.987C67.4185 220.865 66.8216 220.964 66.3199 221.264C65.8068 221.538 65.3107 221.843 64.8345 222.178C64.5917 222.339 64.3547 222.496 64.1062 222.64C63.8565 222.808 63.5631 222.898 63.2623 222.9C63.1112 222.886 62.965 222.839 62.8342 222.762C62.7033 222.685 62.591 222.58 62.5051 222.455C62.3335 222.228 62.2061 221.972 62.1294 221.698C62.0427 218.582 61.7133 215.796 61.4127 213.38C61.1122 210.964 60.8347 208.895 60.2567 207.311C60.0117 206.611 59.665 205.951 59.2279 205.352C58.9025 204.921 58.4835 204.569 58.0025 204.323C57.5997 204.106 57.1374 204.025 56.6847 204.092Z" fill="white"/>
<path d="M65.6841 265.996C64.8749 260.667 63.0022 248.246 61.8577 240.096C60.7133 231.946 59.6787 224.571 58.8984 219.236C58.5053 216.577 58.1874 214.421 57.962 212.918C57.858 212.178 57.7713 211.6 57.7135 211.184L57.6499 210.739C57.6499 210.635 57.6499 210.583 57.6499 210.583C57.6499 210.583 57.6499 210.635 57.6499 210.733C57.6499 210.832 57.6961 210.988 57.7308 211.178C57.7944 211.577 57.8869 212.155 58.0083 212.912C58.2568 214.398 58.5863 216.554 58.9966 219.218C59.8058 224.553 60.8636 231.934 62.008 240.073C63.1525 248.211 65.0021 260.644 65.7824 265.979" fill="white"/>
<path d="M53.9565 225.732C54.0606 225.786 54.1576 225.852 54.2455 225.929C54.4305 226.068 54.6848 226.27 55.0027 226.507C55.627 227.016 56.4766 227.75 57.3956 228.576L59.7481 230.697L60.459 231.333C60.5533 231.406 60.6387 231.489 60.7134 231.582C60.6095 231.525 60.5109 231.459 60.4186 231.385C60.2394 231.247 59.9793 231.044 59.6672 230.807C59.0487 230.287 58.2048 229.547 57.2858 228.721L54.9102 226.617L54.2051 225.998C54.1121 225.92 54.0287 225.83 53.9565 225.732Z" fill="white"/>
<path d="M61.1295 231.42C61.0948 231.391 62.5225 229.576 64.3201 227.374C66.1177 225.172 67.6089 223.391 67.6436 223.42C67.6783 223.449 66.2506 225.27 64.453 227.466C62.6554 229.663 61.1642 231.449 61.1295 231.42Z" fill="white"/>
<path d="M62.3203 244.009C62.4064 243.925 62.5014 243.852 62.6035 243.789L63.407 243.211C64.0832 242.737 65.0196 242.084 66.0253 241.321C67.031 240.558 67.9211 239.847 68.5627 239.327L69.3199 238.708C69.4092 238.628 69.506 238.557 69.6089 238.495C69.6089 238.495 69.528 238.599 69.3604 238.755C69.1927 238.911 68.95 239.142 68.6379 239.414C68.0136 239.963 67.1351 240.697 66.1236 241.454C65.1121 242.211 64.1699 242.859 63.4705 243.304C63.1237 243.529 62.8405 243.702 62.6382 243.824C62.5412 243.9 62.4343 243.962 62.3203 244.009Z" fill="white"/>
<path d="M54.6963 240.298C54.8067 240.32 54.9136 240.357 55.0142 240.408L55.8407 240.772C56.5401 241.084 57.4996 241.523 58.5516 242.02C59.6035 242.517 60.5572 242.98 61.2392 243.321C61.586 243.488 61.8577 243.627 62.0484 243.731C62.1511 243.775 62.2481 243.832 62.3375 243.899C62.2267 243.878 62.1196 243.841 62.0196 243.789L61.193 243.425C60.4936 243.113 59.5342 242.668 58.4822 242.171C57.4302 241.674 56.4765 241.217 55.7887 240.876C55.4477 240.708 55.176 240.564 54.9853 240.465C54.8831 240.42 54.7862 240.364 54.6963 240.298Z" fill="white"/>
<path d="M54.332 251.546C54.4701 251.581 54.6039 251.631 54.7309 251.696L55.7944 252.153C56.6903 252.552 57.9214 253.106 59.2624 253.731C60.6033 254.355 61.846 254.933 62.7304 255.355L63.7708 255.864C63.9027 255.92 64.0286 255.99 64.1465 256.072C64.0077 256.039 63.8737 255.988 63.7477 255.921L62.6784 255.459C61.7825 255.066 60.5513 254.511 59.2104 253.881C57.8694 253.251 56.6267 252.685 55.7424 252.263L54.702 251.754C54.5722 251.697 54.4483 251.627 54.332 251.546Z" fill="white"/>
<path d="M63.9614 255.898C64.0684 255.79 64.1866 255.693 64.314 255.609L65.3139 254.864C66.152 254.234 67.308 253.361 68.5565 252.367C69.805 251.373 70.9205 250.436 71.7182 249.76L72.6661 248.957C72.7749 248.851 72.8951 248.758 73.0245 248.679C72.9296 248.798 72.8231 248.906 72.7066 249.003C72.4985 249.211 72.1864 249.5 71.7933 249.847C71.013 250.552 69.9148 251.5 68.6606 252.494C67.4063 253.488 66.2387 254.355 65.3775 254.956C64.9498 255.263 64.5972 255.5 64.3545 255.661C64.2298 255.75 64.0984 255.83 63.9614 255.898Z" fill="white"/>
<path d="M186.757 249.58C184.34 248.478 181.744 247.822 179.093 247.644C171.579 247.124 164.556 243.743 158.95 238.685C158.718 238.477 158.487 238.275 158.256 238.078C154.678 235.073 150.927 230.35 150.164 225.744C147.274 208.629 145.147 185.047 145.297 172.654H143.563C143.563 172.654 143.373 202.774 137.783 228.246C137.491 229.504 136.901 230.672 136.062 231.653C135.223 232.634 134.16 233.398 132.963 233.882C127.491 236.195 122.955 240.281 120.085 245.482C119.273 246.93 118.04 248.097 116.549 248.828C115.058 249.559 113.381 249.819 111.739 249.575C106.699 248.875 101.584 250.157 97.4701 253.152C93.3564 256.147 90.5646 260.62 89.6821 265.631L199.34 265.689C198.654 262.205 197.157 258.932 194.971 256.133C192.785 253.335 189.971 251.09 186.757 249.58Z" fill="#EBEBEB"/>
<path d="M124.923 161.742H101.728V83.0815C101.728 80.0156 102.946 77.0753 105.114 74.9073C107.282 72.7394 110.222 71.5215 113.288 71.5215C116.354 71.5215 119.294 72.7394 121.462 74.9073C123.63 77.0753 124.848 80.0156 124.848 83.0815L124.923 161.742Z" fill="#FFA500"/>
<path d="M124.923 161.742H101.728V83.0815C101.728 80.0156 102.946 77.0753 105.114 74.9073C107.282 72.7394 110.222 71.5215 113.288 71.5215C116.354 71.5215 119.294 72.7394 121.462 74.9073C123.63 77.0753 124.848 80.0156 124.848 83.0815L124.923 161.742Z" fill="white"/>
<path d="M124.923 81.8217C124.923 81.9026 119.75 81.9719 113.363 81.9719C106.976 81.9719 101.803 81.9026 101.803 81.8217C101.803 81.7407 107.005 81.6714 113.363 81.6714C119.721 81.6714 124.923 81.735 124.923 81.8217Z" fill="#263238"/>
<path d="M124.923 101.901C124.923 101.988 119.75 102.052 113.363 102.052C106.976 102.052 101.803 101.988 101.803 101.901C101.803 101.815 107.005 101.751 113.363 101.751C119.721 101.751 124.923 101.82 124.923 101.901Z" fill="#263238"/>
<path d="M118.49 101.901C118.409 101.901 118.339 97.4042 118.339 91.8611C118.339 86.3181 118.409 81.8213 118.49 81.8213C118.571 81.8213 118.64 86.3123 118.64 91.8611C118.64 97.4099 118.582 101.901 118.49 101.901Z" fill="#263238"/>
<path d="M115.779 87.6651C115.779 87.8263 115.731 87.9838 115.642 88.1179C115.552 88.2519 115.425 88.3563 115.276 88.418C115.127 88.4797 114.963 88.4958 114.805 88.4644C114.647 88.433 114.502 88.3553 114.388 88.2414C114.274 88.1274 114.196 87.9822 114.165 87.8241C114.133 87.666 114.149 87.5021 114.211 87.3532C114.273 87.2043 114.377 87.077 114.511 86.9875C114.645 86.8979 114.803 86.8501 114.964 86.8501C115.18 86.8501 115.387 86.936 115.54 87.0888C115.693 87.2416 115.779 87.4489 115.779 87.6651Z" fill="#263238"/>
<path d="M115.779 94.607C115.779 94.7682 115.731 94.9257 115.642 95.0597C115.552 95.1938 115.425 95.2982 115.276 95.3599C115.127 95.4216 114.963 95.4377 114.805 95.4063C114.647 95.3748 114.502 95.2972 114.388 95.1832C114.274 95.0693 114.196 94.9241 114.165 94.766C114.133 94.6079 114.149 94.444 114.211 94.2951C114.273 94.1462 114.377 94.0189 114.511 93.9293C114.645 93.8398 114.803 93.792 114.964 93.792C115.18 93.792 115.387 93.8779 115.54 94.0307C115.693 94.1835 115.779 94.3908 115.779 94.607Z" fill="#263238"/>
<path d="M124.923 142.766C124.923 142.846 119.75 142.916 113.363 142.916C106.976 142.916 101.803 142.846 101.803 142.766C101.803 142.685 107.005 142.615 113.363 142.615C119.721 142.615 124.923 142.667 124.923 142.766Z" fill="#263238"/>
<path d="M118.49 142.766C118.409 142.766 118.339 138.269 118.339 132.726C118.339 127.183 118.409 122.686 118.49 122.686C118.571 122.686 118.64 127.177 118.64 132.726C118.64 138.275 118.582 142.766 118.49 142.766Z" fill="#263238"/>
<path d="M114.964 129.321C115.414 129.321 115.779 128.956 115.779 128.506C115.779 128.056 115.414 127.691 114.964 127.691C114.514 127.691 114.149 128.056 114.149 128.506C114.149 128.956 114.514 129.321 114.964 129.321Z" fill="#263238"/>
<path d="M114.964 136.269C115.414 136.269 115.779 135.904 115.779 135.454C115.779 135.004 115.414 134.639 114.964 134.639C114.514 134.639 114.149 135.004 114.149 135.454C114.149 135.904 114.514 136.269 114.964 136.269Z" fill="#263238"/>
<path d="M101.82 122.536C101.82 122.455 107.022 122.385 113.38 122.385C119.738 122.385 124.94 122.455 124.94 122.536C124.94 122.616 119.767 122.686 113.38 122.686C106.993 122.686 101.82 122.588 101.82 122.536Z" fill="#263238"/>
<path d="M108.242 122.536C108.161 122.536 108.092 118.039 108.092 112.496C108.092 106.953 108.161 102.456 108.242 102.456C108.323 102.456 108.392 106.947 108.392 112.496C108.392 118.045 108.329 122.536 108.242 122.536Z" fill="#263238"/>
<path d="M110.976 108.27C110.977 108.431 111.026 108.588 111.116 108.722C111.206 108.855 111.334 108.958 111.483 109.019C111.632 109.08 111.796 109.095 111.954 109.063C112.111 109.031 112.256 108.953 112.369 108.839C112.483 108.725 112.56 108.58 112.591 108.422C112.622 108.264 112.605 108.1 112.543 107.951C112.482 107.803 112.377 107.676 112.243 107.587C112.109 107.497 111.952 107.45 111.791 107.45C111.684 107.45 111.577 107.471 111.478 107.512C111.379 107.554 111.288 107.614 111.213 107.69C111.137 107.767 111.077 107.857 111.036 107.957C110.996 108.056 110.975 108.163 110.976 108.27Z" fill="#263238"/>
<path d="M110.976 115.212C110.976 115.374 111.024 115.531 111.113 115.665C111.203 115.799 111.33 115.904 111.479 115.965C111.628 116.027 111.792 116.043 111.95 116.012C112.108 115.98 112.253 115.903 112.367 115.789C112.481 115.675 112.559 115.53 112.59 115.371C112.622 115.213 112.606 115.049 112.544 114.901C112.482 114.752 112.378 114.624 112.244 114.535C112.11 114.445 111.952 114.397 111.791 114.397C111.575 114.397 111.368 114.483 111.215 114.636C111.062 114.789 110.976 114.996 110.976 115.212Z" fill="#263238"/>
<path d="M103.271 83.8096C103.249 83.6563 103.249 83.5005 103.271 83.3472C103.297 82.9265 103.347 82.5077 103.422 82.0929C103.654 80.7165 104.084 79.3809 104.699 78.1278C105.046 77.4413 105.46 76.7907 105.936 76.1857C106.331 75.6957 106.777 75.2482 107.265 74.8506C107.45 74.6999 107.643 74.5591 107.843 74.4286C107.99 74.3216 108.147 74.2287 108.311 74.1512C108.442 74.0671 108.584 74.0028 108.733 73.9604C108.762 74.0125 108.184 74.3246 107.398 75.0182C106.94 75.4255 106.52 75.8744 106.144 76.3591C105.695 76.96 105.299 77.5982 104.959 78.2666C104.362 79.4973 103.916 80.7956 103.63 82.1334C103.404 83.1564 103.323 83.8096 103.271 83.8096Z" fill="#FAFAFA"/>
<path d="M112.652 72.9725C112.652 73.0534 112.305 73.1806 111.843 73.2615C111.381 73.3424 110.999 73.3366 110.988 73.2615C110.976 73.1864 111.334 73.0476 111.797 72.9667C112.259 72.8858 112.641 72.8858 112.652 72.9725Z" fill="#FAFAFA"/>
<path d="M162.181 161.742H185.353V83.0815C185.353 81.561 185.053 80.0554 184.47 78.651C183.888 77.2466 183.034 75.971 181.957 74.8971C180.881 73.8233 179.603 72.9724 178.197 72.3932C176.791 71.8139 175.285 71.5177 173.764 71.5215C170.698 71.5215 167.758 72.7394 165.59 74.9074C163.422 77.0753 162.204 80.0156 162.204 83.0815L162.181 161.742Z" fill="#FFA500"/>
<path d="M162.181 161.742H185.353V83.0815C185.353 81.561 185.053 80.0554 184.47 78.651C183.888 77.2466 183.034 75.971 181.957 74.8971C180.881 73.8233 179.603 72.9724 178.197 72.3932C176.791 71.8139 175.285 71.5177 173.764 71.5215C170.698 71.5215 167.758 72.7394 165.59 74.9074C163.422 77.0753 162.204 80.0156 162.204 83.0815L162.181 161.742Z" fill="white"/>
<path d="M162.181 81.8217C162.181 81.735 167.383 81.6714 173.741 81.6714C180.099 81.6714 185.301 81.735 185.301 81.8217C185.301 81.9084 180.128 81.9719 173.741 81.9719C167.354 81.9719 162.181 81.9026 162.181 81.8217Z" fill="#263238"/>
<path d="M162.181 101.901C162.181 101.82 167.383 101.751 173.741 101.751C180.099 101.751 185.301 101.82 185.301 101.901C185.301 101.982 180.128 102.052 173.741 102.052C167.354 102.052 162.181 101.988 162.181 101.901Z" fill="#263238"/>
<path d="M168.602 101.901C168.522 101.901 168.452 97.4042 168.452 91.8611C168.452 86.3181 168.522 81.8213 168.602 81.8213C168.683 81.8213 168.753 86.3123 168.753 91.8611C168.753 97.4099 168.689 101.901 168.602 101.901Z" fill="#263238"/>
<path d="M171.319 87.6651C171.319 87.8263 171.367 87.9838 171.456 88.1179C171.546 88.2519 171.673 88.3563 171.822 88.418C171.971 88.4797 172.135 88.4958 172.293 88.4644C172.451 88.433 172.596 88.3553 172.71 88.2414C172.824 88.1274 172.902 87.9822 172.933 87.8241C172.965 87.666 172.948 87.5021 172.887 87.3532C172.825 87.2043 172.721 87.077 172.587 86.9875C172.453 86.8979 172.295 86.8501 172.134 86.8501C171.918 86.8501 171.71 86.936 171.558 87.0888C171.405 87.2416 171.319 87.4489 171.319 87.6651Z" fill="#263238"/>
<path d="M171.319 94.607C171.319 94.7682 171.367 94.9257 171.456 95.0597C171.546 95.1938 171.673 95.2982 171.822 95.3599C171.971 95.4216 172.135 95.4377 172.293 95.4063C172.451 95.3748 172.596 95.2972 172.71 95.1832C172.824 95.0693 172.902 94.9241 172.933 94.766C172.965 94.6079 172.948 94.444 172.887 94.2951C172.825 94.1462 172.721 94.0189 172.587 93.9293C172.453 93.8398 172.295 93.792 172.134 93.792C171.918 93.792 171.71 93.8779 171.558 94.0307C171.405 94.1835 171.319 94.3908 171.319 94.607Z" fill="#263238"/>
<path d="M162.181 142.766C162.181 142.685 167.383 142.615 173.741 142.615C180.099 142.615 185.301 142.685 185.301 142.766C185.301 142.846 180.128 142.916 173.741 142.916C167.354 142.916 162.181 142.829 162.181 142.766Z" fill="#263238"/>
<path d="M168.602 142.766C168.522 142.766 168.452 138.269 168.452 132.726C168.452 127.183 168.522 122.686 168.602 122.686C168.683 122.686 168.776 127.16 168.776 132.709C168.776 138.257 168.689 142.766 168.602 142.766Z" fill="#263238"/>
<path d="M172.134 129.321C172.584 129.321 172.949 128.956 172.949 128.506C172.949 128.056 172.584 127.691 172.134 127.691C171.684 127.691 171.319 128.056 171.319 128.506C171.319 128.956 171.684 129.321 172.134 129.321Z" fill="#263238"/>
<path d="M172.134 136.269C172.584 136.269 172.949 135.904 172.949 135.454C172.949 135.004 172.584 134.639 172.134 134.639C171.684 134.639 171.319 135.004 171.319 135.454C171.319 135.904 171.684 136.269 172.134 136.269Z" fill="#263238"/>
<path d="M185.284 122.536C185.284 122.616 180.11 122.686 173.724 122.686C167.337 122.686 162.164 122.616 162.164 122.536C162.164 122.455 167.366 122.385 173.724 122.385C180.082 122.385 185.284 122.426 185.284 122.536Z" fill="#263238"/>
<path d="M178.856 122.536C178.775 122.536 178.706 118.039 178.706 112.496C178.706 106.953 178.775 102.456 178.856 102.456C178.937 102.456 179.007 106.947 179.007 112.496C179.007 118.045 178.943 122.536 178.856 122.536Z" fill="#263238"/>
<path d="M176.14 108.27C176.139 108.431 176.09 108.588 176 108.722C175.909 108.855 175.782 108.958 175.633 109.019C175.484 109.08 175.32 109.095 175.162 109.063C175.005 109.031 174.86 108.953 174.746 108.839C174.633 108.725 174.556 108.58 174.525 108.422C174.494 108.264 174.511 108.1 174.572 107.951C174.634 107.803 174.739 107.676 174.873 107.587C175.006 107.497 175.164 107.45 175.325 107.45C175.432 107.45 175.539 107.471 175.638 107.512C175.737 107.554 175.827 107.614 175.903 107.69C175.979 107.767 176.039 107.857 176.079 107.957C176.12 108.056 176.14 108.163 176.14 108.27Z" fill="#263238"/>
<path d="M176.14 115.212C176.14 115.374 176.092 115.531 176.002 115.665C175.913 115.799 175.786 115.904 175.637 115.965C175.488 116.027 175.324 116.043 175.166 116.012C175.008 115.98 174.862 115.903 174.748 115.789C174.634 115.675 174.557 115.53 174.525 115.371C174.494 115.213 174.51 115.049 174.572 114.901C174.633 114.752 174.738 114.624 174.872 114.535C175.006 114.445 175.164 114.397 175.325 114.397C175.432 114.397 175.538 114.419 175.637 114.459C175.736 114.5 175.825 114.56 175.901 114.636C175.977 114.712 176.037 114.802 176.078 114.901C176.119 114.999 176.14 115.105 176.14 115.212Z" fill="#263238"/>
<path d="M183.804 83.8096C183.758 83.8096 183.671 83.1622 183.446 82.1334C183.157 80.7955 182.709 79.4973 182.11 78.2666C181.775 77.5958 181.378 76.9573 180.925 76.3591C180.552 75.8746 180.134 75.4257 179.677 75.0182C178.891 74.3246 178.307 74.0125 178.336 73.9604C178.488 74.0007 178.632 74.0651 178.764 74.1512C178.928 74.2287 179.085 74.3216 179.232 74.4286C179.432 74.5591 179.625 74.6999 179.81 74.8506C180.298 75.2482 180.744 75.6957 181.139 76.1857C181.615 76.7907 182.029 77.4413 182.376 78.1278C182.987 79.3819 183.416 80.7172 183.648 82.0929C183.723 82.5077 183.776 82.9265 183.804 83.3472C183.832 83.5 183.832 83.6568 183.804 83.8096Z" fill="white"/>
<path d="M174.446 72.9723C174.446 72.8856 174.845 72.8856 175.307 72.9723C175.77 73.059 176.128 73.1803 176.117 73.267C176.105 73.3537 175.718 73.348 175.255 73.267C174.793 73.1861 174.435 73.0532 174.446 72.9723Z" fill="white"/>
<path d="M136.697 40.5465L128.57 55.8866C126.173 60.4048 124.921 65.4417 124.923 70.5563V177.284L139.171 186.387H149.049L162.343 177.284V71.0244C162.331 66.1189 161.169 61.2845 158.95 56.9097L150.679 40.4598C150.219 39.5467 149.514 38.7793 148.644 38.2435C147.773 37.7076 146.771 37.4243 145.748 37.4253H141.656C140.62 37.4276 139.605 37.7215 138.728 38.2735C137.851 38.8255 137.147 39.6132 136.697 40.5465Z" fill="#FFA500"/>
<path d="M124.923 168.776H89.0869C89.0869 168.776 89.0869 152.979 104.074 141.737C119.062 130.495 124.929 105.069 124.929 105.069L124.923 168.776Z" fill="#FFA500"/>
<path d="M162.331 168.776H198.167C198.167 168.776 198.167 152.979 183.18 141.737C168.192 130.495 162.331 105.069 162.331 105.069V168.776Z" fill="#FFA500"/>
<path opacity="0.2" d="M124.923 168.776H89.0869C89.0869 168.776 89.0869 152.979 104.074 141.737C119.062 130.495 124.929 105.069 124.929 105.069L124.923 168.776Z" fill="black"/>
<path opacity="0.2" d="M162.331 168.776H198.167C198.167 168.776 198.167 152.979 183.18 141.737C168.192 130.495 162.331 105.069 162.331 105.069V168.776Z" fill="black"/>
<path d="M127.558 112.993C127.478 112.993 127.408 105.115 127.408 95.3931C127.408 85.6711 127.478 77.793 127.558 77.793C127.639 77.793 127.738 85.6711 127.738 95.37C127.738 105.069 127.639 112.993 127.558 112.993Z" fill="#FAFAFA"/>
<path d="M127.952 67.354C128.102 67.8735 128.153 68.4167 128.102 68.9551C128.153 69.4935 128.102 70.0366 127.952 70.5561C127.805 70.036 127.754 69.4935 127.801 68.9551C127.754 68.4167 127.805 67.8741 127.952 67.354Z" fill="#FAFAFA"/>
<path d="M139.518 40.1013C139.593 40.136 137.142 45.0548 134.05 51.0833C130.958 57.1119 128.391 61.9728 128.316 61.9324C128.241 61.8919 130.692 56.9789 133.784 50.9504C136.876 44.9218 139.443 40.0609 139.518 40.1013Z" fill="#FAFAFA"/>
<path d="M121.045 121.732C121.052 121.778 121.052 121.825 121.045 121.871C121.045 121.981 121.004 122.114 120.975 122.282L120.848 122.94C120.795 123.244 120.722 123.543 120.629 123.836C120.12 125.73 119.37 127.55 118.398 129.252C116.945 131.768 115.214 134.112 113.236 136.24C111.034 138.668 108.404 141.124 105.624 143.668C103.006 146.045 100.629 148.674 98.5259 151.517C97.6177 152.762 96.7765 154.055 96.0058 155.389C95.3444 156.56 94.7443 157.763 94.2082 158.996C93.4324 160.781 92.8192 162.632 92.376 164.528C92.2026 165.192 92.1332 165.724 92.0465 166.077L91.9598 166.481C91.9556 166.53 91.9418 166.577 91.9194 166.62C91.9129 166.574 91.9129 166.527 91.9194 166.481L91.9772 166.071C92.0407 165.712 92.0928 165.175 92.2488 164.499C92.6471 162.584 93.2278 160.713 93.9828 158.909C94.5077 157.664 95.1001 156.449 95.7573 155.268C96.524 153.919 97.3633 152.613 98.2716 151.355C100.376 148.487 102.762 145.837 105.393 143.442C108.173 140.905 110.803 138.46 113.005 136.049C114.987 133.945 116.732 131.629 118.207 129.142C119.188 127.463 119.965 125.672 120.519 123.807C120.615 123.517 120.696 123.222 120.762 122.923C120.819 122.669 120.871 122.455 120.912 122.27C120.952 122.085 120.987 121.975 121.016 121.865C121.018 121.82 121.028 121.775 121.045 121.732Z" fill="#FAFAFA"/>
<path d="M146.714 74.0415H140.535C138.738 74.0415 137.015 73.3278 135.745 72.0574C134.474 70.787 133.761 69.0639 133.761 67.2673C133.761 65.4707 134.474 63.7477 135.745 62.4773C137.015 61.2069 138.738 60.4932 140.535 60.4932H146.714C147.604 60.4924 148.485 60.6671 149.307 61.0073C150.129 61.3474 150.876 61.8464 151.505 62.4756C152.135 63.1048 152.634 63.8518 152.974 64.6741C153.314 65.4963 153.489 66.3775 153.488 67.2673C153.488 69.0639 152.774 70.787 151.504 72.0574C150.233 73.3278 148.51 74.0415 146.714 74.0415Z" fill="white"/>
<path opacity="0.4" d="M124.923 177.284L139.171 186.382H149.049L162.331 177.284V173.533H124.923V177.284Z" fill="black"/>
</svg>
