<svg width="108" height="20" viewBox="0 0 108 20" fill="none" xmlns="http://www.w3.org/2000/svg">
<path d="M10.8729 7.14C10.8729 8.3 10.4729 9.26667 9.67289 10.04C8.88622 10.8 7.67956 11.18 6.05289 11.18H3.37289V17H1.55289V3.06H6.05289C7.62622 3.06 8.81956 3.44 9.63289 4.2C10.4596 4.96 10.8729 5.94 10.8729 7.14ZM6.05289 9.68C7.06622 9.68 7.81289 9.46 8.29289 9.02C8.77289 8.58 9.01289 7.95333 9.01289 7.14C9.01289 5.42 8.02622 4.56 6.05289 4.56H3.37289V9.68H6.05289ZM18.1149 17.18C17.0883 17.18 16.1549 16.9467 15.3149 16.48C14.4883 16.0133 13.8349 15.3533 13.3549 14.5C12.8883 13.6333 12.6549 12.6333 12.6549 11.5C12.6549 10.38 12.8949 9.39333 13.3749 8.54C13.8683 7.67333 14.5349 7.01333 15.3749 6.56C16.2149 6.09333 17.1549 5.86 18.1949 5.86C19.2349 5.86 20.1749 6.09333 21.0149 6.56C21.8549 7.01333 22.5149 7.66667 22.9949 8.52C23.4883 9.37333 23.7349 10.3667 23.7349 11.5C23.7349 12.6333 23.4816 13.6333 22.9749 14.5C22.4816 15.3533 21.8083 16.0133 20.9549 16.48C20.1016 16.9467 19.1549 17.18 18.1149 17.18ZM18.1149 15.58C18.7683 15.58 19.3816 15.4267 19.9549 15.12C20.5283 14.8133 20.9883 14.3533 21.3349 13.74C21.6949 13.1267 21.8749 12.38 21.8749 11.5C21.8749 10.62 21.7016 9.87333 21.3549 9.26C21.0083 8.64667 20.5549 8.19333 19.9949 7.9C19.4349 7.59333 18.8283 7.44 18.1749 7.44C17.5083 7.44 16.8949 7.59333 16.3349 7.9C15.7883 8.19333 15.3483 8.64667 15.0149 9.26C14.6816 9.87333 14.5149 10.62 14.5149 11.5C14.5149 12.3933 14.6749 13.1467 14.9949 13.76C15.3283 14.3733 15.7683 14.8333 16.3149 15.14C16.8616 15.4333 17.4616 15.58 18.1149 15.58ZM31.6679 5.84C33.0012 5.84 34.0812 6.24667 34.9079 7.06C35.7346 7.86 36.1479 9.02 36.1479 10.54V17H34.3479V10.8C34.3479 9.70667 34.0746 8.87333 33.5279 8.3C32.9812 7.71333 32.2346 7.42 31.2879 7.42C30.3279 7.42 29.5612 7.72 28.9879 8.32C28.4279 8.92 28.1479 9.79333 28.1479 10.94V17H26.3279V6.04H28.1479V7.6C28.5079 7.04 28.9946 6.60667 29.6079 6.3C30.2346 5.99333 30.9212 5.84 31.6679 5.84ZM38.6409 11.48C38.6409 10.36 38.8675 9.38 39.3209 8.54C39.7742 7.68667 40.3942 7.02667 41.1809 6.56C41.9809 6.09333 42.8742 5.86 43.8609 5.86C44.7142 5.86 45.5075 6.06 46.2409 6.46C46.9742 6.84667 47.5342 7.36 47.9209 8V2.2H49.7609V17H47.9209V14.94C47.5609 15.5933 47.0275 16.1333 46.3209 16.56C45.6142 16.9733 44.7875 17.18 43.8409 17.18C42.8675 17.18 41.9809 16.94 41.1809 16.46C40.3942 15.98 39.7742 15.3067 39.3209 14.44C38.8675 13.5733 38.6409 12.5867 38.6409 11.48ZM47.9209 11.5C47.9209 10.6733 47.7542 9.95333 47.4209 9.34C47.0875 8.72667 46.6342 8.26 46.0609 7.94C45.5009 7.60667 44.8809 7.44 44.2009 7.44C43.5209 7.44 42.9009 7.6 42.3409 7.92C41.7809 8.24 41.3342 8.70667 41.0009 9.32C40.6675 9.93333 40.5009 10.6533 40.5009 11.48C40.5009 12.32 40.6675 13.0533 41.0009 13.68C41.3342 14.2933 41.7809 14.7667 42.3409 15.1C42.9009 15.42 43.5209 15.58 44.2009 15.58C44.8809 15.58 45.5009 15.42 46.0609 15.1C46.6342 14.7667 47.0875 14.2933 47.4209 13.68C47.7542 13.0533 47.9209 12.3267 47.9209 11.5ZM63.0365 11.1C63.0365 11.4467 63.0165 11.8133 62.9765 12.2H54.2165C54.2831 13.28 54.6498 14.1267 55.3165 14.74C55.9965 15.34 56.8165 15.64 57.7765 15.64C58.5631 15.64 59.2165 15.46 59.7365 15.1C60.2698 14.7267 60.6431 14.2333 60.8565 13.62H62.8165C62.5232 14.6733 61.9365 15.5333 61.0565 16.2C60.1765 16.8533 59.0831 17.18 57.7765 17.18C56.7365 17.18 55.8031 16.9467 54.9765 16.48C54.1631 16.0133 53.5231 15.3533 53.0565 14.5C52.5898 13.6333 52.3565 12.6333 52.3565 11.5C52.3565 10.3667 52.5831 9.37333 53.0365 8.52C53.4898 7.66667 54.1231 7.01333 54.9365 6.56C55.7631 6.09333 56.7098 5.86 57.7765 5.86C58.8165 5.86 59.7365 6.08667 60.5365 6.54C61.3365 6.99333 61.9498 7.62 62.3765 8.42C62.8165 9.20667 63.0365 10.1 63.0365 11.1ZM61.1565 10.72C61.1565 10.0267 61.0031 9.43333 60.6965 8.94C60.3898 8.43333 59.9698 8.05333 59.4365 7.8C58.9165 7.53333 58.3365 7.4 57.6965 7.4C56.7765 7.4 55.9898 7.69333 55.3365 8.28C54.6965 8.86667 54.3298 9.68 54.2365 10.72H61.1565ZM77.8988 17H74.4788L68.7588 8.34V17H65.3388V2.96H68.7588L74.4788 11.66V2.96H77.8988V17ZM91.0979 11.24C91.0979 11.56 91.0779 11.8933 91.0379 12.24H83.2979C83.3512 12.9333 83.5712 13.4667 83.9579 13.84C84.3579 14.2 84.8446 14.38 85.4179 14.38C86.2712 14.38 86.8646 14.02 87.1979 13.3H90.8379C90.6512 14.0333 90.3112 14.6933 89.8179 15.28C89.3379 15.8667 88.7312 16.3267 87.9979 16.66C87.2646 16.9933 86.4446 17.16 85.5379 17.16C84.4446 17.16 83.4712 16.9267 82.6179 16.46C81.7646 15.9933 81.0979 15.3267 80.6179 14.46C80.1379 13.5933 79.8979 12.58 79.8979 11.42C79.8979 10.26 80.1312 9.24667 80.5979 8.38C81.0779 7.51333 81.7446 6.84667 82.5979 6.38C83.4512 5.91333 84.4312 5.68 85.5379 5.68C86.6179 5.68 87.5779 5.90667 88.4179 6.36C89.2579 6.81333 89.9112 7.46 90.3779 8.3C90.8579 9.14 91.0979 10.12 91.0979 11.24ZM87.5979 10.34C87.5979 9.75333 87.3979 9.28667 86.9979 8.94C86.5979 8.59333 86.0979 8.42 85.4979 8.42C84.9246 8.42 84.4379 8.58667 84.0379 8.92C83.6512 9.25333 83.4112 9.72667 83.3179 10.34H87.5979ZM99.3221 14.1V17H97.5821C96.3421 17 95.3754 16.7 94.6821 16.1C93.9888 15.4867 93.6421 14.4933 93.6421 13.12V8.68H92.2821V5.84H93.6421V3.12H97.0621V5.84H99.3021V8.68H97.0621V13.16C97.0621 13.4933 97.1421 13.7333 97.3021 13.88C97.4621 14.0267 97.7288 14.1 98.1021 14.1H99.3221Z" fill="white"/>
<circle cx="105.5" cy="2.5" r="2.5" fill="#27F053"/>
</svg>
